<?xml version="1.0" encoding="UTF-8" standalone="no"?>
<!-- Created with Inkscape (http://www.inkscape.org/) -->
<svg
   xmlns:dc="http://purl.org/dc/elements/1.1/"
   xmlns:cc="http://creativecommons.org/ns#"
   xmlns:rdf="http://www.w3.org/1999/02/22-rdf-syntax-ns#"
   xmlns:svg="http://www.w3.org/2000/svg"
   xmlns="http://www.w3.org/2000/svg"
   xmlns:sodipodi="http://sodipodi.sourceforge.net/DTD/sodipodi-0.dtd"
   xmlns:inkscape="http://www.inkscape.org/namespaces/inkscape"
   version="1.0"
   width="388.10666"
   height="716.013"
   viewBox="0 0 395 722.33"
   id="Salzburg_x28_Wappen_x29_"
   xml:space="preserve"
   sodipodi:version="0.32"
   inkscape:version="0.46"
   sodipodi:docname="Salzburg_Wappen.svg"
   inkscape:output_extension="org.inkscape.output.svg.inkscape"><metadata
   id="metadata57"><rdf:RDF><cc:Work
       rdf:about=""><dc:format>image/svg+xml</dc:format><dc:type
         rdf:resource="http://purl.org/dc/dcmitype/StillImage" /></cc:Work></rdf:RDF></metadata><sodipodi:namedview
   inkscape:window-height="749"
   inkscape:window-width="1366"
   inkscape:pageshadow="2"
   inkscape:pageopacity="0.0"
   guidetolerance="10.0"
   gridtolerance="10.0"
   objecttolerance="10.0"
   borderopacity="1.0"
   bordercolor="#666666"
   pagecolor="#ffffff"
   id="base"
   showgrid="false"
   inkscape:zoom="0.74858976"
   inkscape:cx="194.05333"
   inkscape:cy="358.0065"
   inkscape:window-x="-4"
   inkscape:window-y="-4"
   inkscape:current-layer="Salzburg_x28_Wappen_x29_" /><defs
   id="defs95"><inkscape:perspective
     sodipodi:type="inkscape:persp3d"
     inkscape:vp_x="0 : 361.16501 : 1"
     inkscape:vp_y="0 : 1000 : 0"
     inkscape:vp_z="395 : 361.16501 : 1"
     inkscape:persp3d-origin="197.5 : 240.77667 : 1"
     id="perspective59" /></defs>











<g
   id="g2660"
   transform="translate(0,3.1871062)"><path
     id="Goldreif"
     style="fill:#f5be15;fill-rule:evenodd"
     d="M 206,81.799772 C 205.435,74.234772 213.073,74.872772 215,69.799772 L 218,62.799772 C 218,61.799772 218,60.799772 218,59.799772 L 214,53.799772 C 214,51.254772 209.482,46.178772 203,47.799772 L 203,43.799772 C 202.146,36.641772 200,19.799772 200,19.799772 L 213,21.799772 L 213,12.799772 C 213,12.799772 205.016,13.575772 200,14.799772 C 201.515,9.9817724 204,-1.2002276 204,-1.2002276 L 189,-1.2002276 L 193,14.799772 L 179,12.799772 L 179,21.799772 C 179,21.799772 187.082,19.214772 193,19.799772 C 193.431,29.230772 190,43.799772 190,43.799772 L 190,47.799772 C 183.167,46.966772 180.708,50.507772 179,54.799772 L 174,58.799772 C 174,59.799772 174,62.799772 174,63.799772 L 177,68.799772 C 180.749,72.384772 186.14,74.325772 187,80.799772 L 183,91.799772 C 132.941,90.284772 70.817,66.709772 40,101.79977 C 26.05,117.68477 26.918,154.01577 36,178.79977 C 46.149,176.33477 51.764,187.88477 56,184.79977 C 34.813,149.03677 39.921,87.803772 94,93.799772 C 97,93.799772 100,93.799772 103,93.799772 C 129.267,97.273772 164.461,97.231772 185,102.79977 L 184,114.79977 C 184.118,132.91777 180.861,147.66077 174,158.79977 C 177.868,159.33477 178.882,157.01477 183,157.79977 L 209,157.79977 C 214.031,156.47877 218.505,160.90377 221,158.79977 C 211.533,149.26377 210.136,126.33477 208,112.79977 L 207,101.79977 C 254.142,99.957772 342.057,72.215772 349,128.79977 C 351.959,152.91277 344.874,171.55677 339,189.79977 C 343.513,188.15577 352.23,182.47877 359,179.79977 C 362.166,169.29977 364.063,157.52977 364,143.79977 C 364,141.79977 364,139.79977 364,137.79977 C 366.543,95.623772 329.709,82.955772 290,84.799772 C 266.097,85.909772 241.539,95.351772 220,92.799772 C 216.305,93.437772 210.038,91.504772 208,93.799772 L 206,81.799772 z" /><path
     id="Perlen_Hutrand"
     style="fill:#ffffff"
     d="M 379,177.79977 C 378.54,182.02977 368.46,182.02977 368,177.79977 L 368,173.79977 C 368.12,171.25977 369.46,169.91977 372,169.79977 L 377,169.79977 C 378.71,172.28977 380.49,174.70977 379,177.79977 z M 378,175.79977 C 377.03,175.76977 377.22,174.57977 377,173.79977 C 376.03,173.82977 376.22,175.01977 376,175.79977 C 376,176.12977 376,176.46977 376,176.79977 C 374.25,180.41977 376.67,180.41977 377,176.79977 C 377.33,176.79977 377.67,176.79977 378,176.79977 C 378,176.46977 378,176.12977 378,175.79977 z M 378,163.79977 C 380.68,166.67977 383.94,157.67977 381,154.79977 C 378.14,154.93977 381.86,161.65977 379,161.79977 C 379,162.12977 379,162.46977 379,162.79977 C 379.18,163.64977 378.61,163.73977 378,163.79977 z M 380,152.79977 C 388.28,155.15977 382.25,170.48977 374,164.79977 C 365.97,161.94977 372.09,147.95977 380,152.79977 z M 386,142.79977 C 386,141.12977 386,139.46977 386,137.79977 C 385.81,136.98977 385,136.79977 385,135.79977 C 382.57,137.36977 385.42,144.20977 382,144.79977 C 382.1,146.69977 385.9,144.17977 386,142.79977 z M 388,142.79977 C 388.18,143.64977 387.61,143.73977 387,143.79977 L 387,144.79977 C 385.93,147.06977 383.97,148.42977 381,148.79977 C 368.68,150.70977 367.5,135.07977 375,130.79977 C 385.16,129.04977 389.95,135.47977 388,142.79977 z M 383,120.79977 C 383,119.12977 383,117.46977 383,115.79977 C 381.28,111.19977 380.52,116.59977 381,119.79977 C 382.32,122.29977 377.05,122.92977 380,123.79977 C 381.44,123.23977 382.44,122.23977 383,120.79977 z M 385,119.79977 C 383.57,128.46977 369.43,128.46977 368,119.79977 C 366.37,120.24977 366.37,114.34977 368,114.79977 C 368.36,111.15977 370.36,109.15977 374,108.79977 C 373.55,107.16977 379.45,107.16977 379,108.79977 C 382.64,109.15977 384.64,111.15977 385,114.79977 C 386.63,114.34977 386.63,120.24977 385,119.79977 z M 369,103.79977 C 372.87,102.63977 372.87,94.959772 369,93.799772 C 370.15,96.599772 370.15,98.999772 369,101.79977 C 368.38,102.68977 367.79,103.58977 369,103.79977 z M 356,95.799772 C 359.13,73.329772 390.57,108.37977 363,106.79977 C 359.63,103.26977 355.22,101.43977 356,95.799772 z M 356,85.799772 C 356.21,82.929772 355.75,80.719772 354,79.799772 C 352.06,80.879772 355.91,86.719772 352,87.799772 C 351.82,88.649772 352.39,88.739772 353,88.799772 C 355.31,89.109772 354.11,85.909772 356,85.799772 z M 356,87.799772 C 353.71,95.109772 344.17,92.469772 340,88.799772 C 331.3,73.509772 360.41,68.419772 357,85.799772 C 357.16,86.959772 356.78,87.579772 356,87.799772 z M 334,79.799772 C 334,79.469772 334,79.129772 334,78.799772 C 334,77.469772 334,76.129772 334,74.799772 C 334,74.469772 334,74.129772 334,73.799772 C 333.11,73.189772 332.21,72.589772 332,73.799772 C 332.48,77.619772 331.72,80.179772 330,81.799772 C 332.73,82.529772 332.01,79.809772 334,79.799772 z M 323,66.799772 C 328.28,64.879772 336.96,66.229772 336,77.799772 C 336.16,78.959772 335.78,79.579772 335,79.799772 C 330.36,95.909772 306.87,72.669772 323,66.799772 z M 312,76.799772 C 312,76.469772 312,76.129772 312,75.799772 C 312,74.469772 312,73.129772 312,71.799772 C 312,71.469772 312,71.129772 312,70.799772 C 310.77,69.679772 309.95,69.929772 310,71.799772 C 310.65,75.449772 309.33,77.129772 308,78.799772 C 310.73,79.529772 310.01,76.809772 312,76.799772 z M 313,69.799772 C 314.65,69.939772 314.65,76.659772 313,76.799772 C 311.75,83.699772 306.23,80.119772 299,80.799772 C 294.32,77.199772 295.06,65.239772 302,64.799772 C 301.84,63.159772 308.16,63.159772 308,64.799772 C 310.89,65.239772 312.56,66.909772 313,69.799772 z M 289,70.799772 C 288,70.799772 287.81,69.989772 287,69.799772 C 286.42,71.559772 288.21,75.679772 286,75.799772 C 286.04,77.179772 285.53,77.999772 285,78.799772 C 288.86,78.659772 289.1,74.899772 289,70.799772 z M 278,80.799772 C 257.01,64.529772 303.18,55.149772 288,80.799772 L 284,80.799772 C 284.16,82.439772 277.84,82.439772 278,80.799772 z M 263,80.799772 C 263.62,82.629772 267.18,79.069772 267,76.799772 C 267,76.129772 267,75.469772 267,74.799772 C 267,74.469772 267,74.129772 267,73.799772 C 266.03,73.769772 266.22,72.579772 266,71.799772 C 263.57,73.369772 266.42,80.209772 263,80.799772 z M 269,74.799772 C 270.2,86.289772 255.04,87.009772 251,79.799772 C 247.37,65.879772 264.56,61.959772 268,71.799772 C 269.17,71.959772 268.84,73.619772 269,74.799772 z M 229,75.799772 C 232.06,62.969772 253.92,73.319772 245,83.799772 C 244.99,85.789772 242.27,85.069772 243,87.799772 L 233,87.799772 C 232.38,85.089772 228.82,85.309772 229,81.799772 C 227.36,81.959772 227.36,75.639772 229,75.799772 z M 240,83.799772 C 242.73,84.529772 242.01,81.809772 244,81.799772 C 244,79.799772 244,77.799772 244,75.799772 C 242.74,75.579772 241.96,74.239772 242,76.799772 C 242.65,80.449772 241.33,82.129772 240,83.799772 z M 223,77.799772 C 222.78,77.559772 222.56,77.329772 222.33,77.119772 C 217.25,72.419772 209.9,76.279772 208.94,81.989772 C 208.589,84.119772 209.12,86.499772 211,88.799772 L 217,88.799772 C 219.17,86.409772 221.11,82.689772 219,78.799772 C 221.15,79.649772 222.54,81.259772 222,84.799772 L 221,84.799772 C 221.73,87.529772 219.01,86.809772 219,88.799772 C 223.94,90.029772 225.32,82.519772 223,79.799772 L 223,77.799772 z M 199,142.79977 C 199.16,141.15977 192.84,141.15977 193,142.79977 C 187.19,143.98977 185.09,148.88977 186,156.79977 L 191,156.79977 C 194.47,156.26977 200.49,158.28977 201,154.79977 C 202.04,151.96977 202.04,150.62977 201,147.79977 C 203.31,147.48977 202.11,150.68977 204,150.79977 C 205.47,153.95977 199.41,156.75977 204,156.79977 C 209.05,152.62977 204.15,143.20977 199,142.79977 z M 198,135.79977 C 203.78,137.20977 204.48,124.10977 200,126.79977 C 201.63,126.34977 201.63,132.24977 200,131.79977 C 200.73,134.52977 198.01,133.80977 198,135.79977 z M 188,126.79977 C 203.36,104.17977 214.01,152.39977 188,134.79977 L 188,132.79977 C 186.36,132.95977 186.36,126.63977 188,126.79977 z M 201,116.79977 C 197.71,118.88977 194.29,118.88977 191,116.79977 C 189.29,115.50977 187.07,114.72977 187,111.79977 C 181.48,99.979772 202.72,93.409772 205,105.79977 C 206.63,105.34977 206.63,111.24977 205,110.79977 L 205,111.79977 C 204.93,114.72977 202.71,115.50977 201,116.79977 z M 203,105.79977 C 201.74,105.57977 200.96,104.23977 201,106.79977 C 201.58,110.70977 200.14,112.60977 199,114.79977 C 201.5,114.96977 202.13,113.25977 203,111.79977 C 203,110.12977 203,108.46977 203,106.79977 C 203,106.46977 203,106.12977 203,105.79977 z M 190,97.799772 C 190.99,94.459772 197.83,96.959772 200,94.799772 L 200,93.799772 C 202.71,93.389772 199.06,83.979772 203,87.799772 C 205.7,93.069772 197.58,96.249772 202,96.799772 C 209.24,90.559772 203.15,77.049772 191,80.799772 C 186.32,83.359772 183.14,94.989772 190,97.799772 z M 181,82.799772 C 181.59,80.429772 179.84,75.449772 179,77.799772 C 178.45,79.249772 180.17,82.969772 178,82.799772 C 178.28,84.419772 177.05,84.519772 177,85.799772 C 180.21,86.679772 179.07,83.209772 181,82.799772 z M 181.23,75.569772 C 182.73,77.069772 183.32,79.479772 183,82.799772 C 183.27,87.109772 176.49,89.569772 173,86.799772 L 170,86.799772 C 169.47,85.999772 168.96,85.179772 169,83.799772 C 167.95,84.089772 167.58,81.739772 167.88,80.159772 C 168.05,79.279772 168.42,78.639772 169,78.799772 L 169,77.799772 C 170.29,76.089772 171.07,73.869772 174,73.799772 C 177.32,73.479772 179.73,74.069772 181.23,75.569772 z M 160,83.799772 C 163.06,82.699772 164.46,75.679772 161,73.799772 C 161,74.129772 161,74.469772 161,74.799772 C 160.42,76.559772 162.21,80.679772 160,80.799772 C 159.86,81.979772 158.22,83.069772 160,83.799772 z M 148,74.799772 C 151.69,62.229772 167.67,70.179772 165.73,79.809772 C 165.39,81.449772 164.53,83.149772 163,84.799772 C 158.35,86.719772 150.42,86.139772 148,82.799772 L 148,80.799772 C 146.98,80.899772 146.59,78.489772 146.84,76.699772 C 146.99,75.609772 147.38,74.739772 148,74.799772 z M 142,76.799772 C 142.21,73.929772 141.75,71.719772 140,70.799772 C 140,71.129772 140,71.469772 140,71.799772 C 139.45,73.249772 141.17,76.969772 139,76.799772 C 139.04,78.179772 138.53,78.999772 138,79.799772 C 141.21,80.679772 140.07,77.209772 142,76.799772 z M 134.92,64.349772 C 140.26,64.349772 145.19,70.999772 144.62,76.469772 C 144.34,79.199772 142.68,81.639772 139,82.799772 C 133.53,84.519772 130.57,81.139772 127,78.799772 L 127,76.799772 C 125.36,76.959772 125.36,70.639772 127,70.799772 C 129.27,66.139772 132.15,64.349772 134.92,64.349772 z M 119,73.799772 C 119,72.129772 119,70.469772 119,68.799772 C 118.81,67.989772 118,67.799772 118,66.799772 C 115.79,66.919772 117.58,71.039772 117,72.799772 C 118.32,75.299772 113.05,75.929772 116,76.799772 C 117.44,76.239772 118.44,75.239772 119,73.799772 z M 121,65.799772 C 123.6,71.079772 121.25,79.129772 115,78.799772 C 113.55,78.249772 109.83,79.969772 110,77.799772 L 107,77.799772 C 104.62,75.769772 102.49,69.549772 105,65.799772 C 106.29,64.089772 107.07,61.869772 110,61.799772 C 111.28,60.429772 114.72,60.429772 116,61.799772 C 118.93,61.869772 119.71,64.089772 121,65.799772 z M 95,75.799772 C 97.98,75.119772 98.35,71.819772 98,67.799772 C 96.77,66.679772 95.95,66.929772 96,68.799772 C 96.32,71.119772 95.84,72.639772 95,73.799772 C 94.39,74.689772 93.79,75.589772 95,75.799772 z M 100,66.799772 C 101.63,66.349772 101.63,72.249772 100,71.799772 C 99.67,74.129772 98.98,76.109772 97,76.799772 L 96,76.799772 C 95.24,78.449772 87.76,78.449772 87,76.799772 L 85,76.799772 C 84.57,74.899772 82.85,74.289772 83,71.799772 C 81.37,72.249772 81.37,66.349772 83,66.799772 C 83.36,63.159772 85.36,61.159772 89,60.799772 C 88.55,59.169772 94.45,59.169772 94,60.799772 C 97.64,61.159772 99.64,63.159772 100,66.799772 z M 74,74.799772 C 74.86,76.709772 74.59,73.719772 76,73.799772 C 76.35,70.069772 72.95,64.919772 70,67.799772 C 72.39,69.069772 74.07,71.059772 74,74.799772 z M 65,62.799772 C 71.57,60.699772 80.26,64.679772 77,75.799772 C 77.18,76.649772 76.61,76.739772 76,76.799772 C 67.4,91.479772 50.29,67.499772 65,62.799772 z M 56,83.799772 C 54.25,87.479772 50.39,89.979772 47,89.799772 C 24.13,88.559772 55.45,52.479772 57,82.799772 C 57.18,83.649772 56.61,83.739772 56,83.799772 z M 55,79.799772 C 54.14,78.989772 54.41,77.059772 53,76.799772 C 51.82,75.649772 49.47,75.669772 47,75.799772 C 46.67,75.799772 46.33,75.799772 46,75.799772 C 48.13,78.339772 54.25,76.879772 54,81.799772 C 54.97,81.769772 54.78,80.579772 55,79.799772 z M 37,97.799772 C 37,96.129772 37,94.469772 37,92.799772 C 36.44,91.359772 35.44,90.359772 34,89.799772 C 32.84,89.639772 32.22,90.019772 32,90.799772 C 33.44,91.359772 34.44,92.359772 35,93.799772 C 35,94.129772 35,94.469772 35,94.799772 C 36.44,95.029772 35.35,97.779772 37,97.799772 z M 38,90.799772 C 40.96,93.829772 37.93,99.349772 36,100.79977 L 35,100.79977 C 32.4,107.50977 23.1,101.77977 21,98.799772 C 16.29,85.639772 34.98,81.219772 38,90.799772 z M 26,112.79977 C 25.16,111.22977 22.07,106.83977 20,109.79977 C 23.14,109.65977 23.44,112.35977 24,114.79977 C 25.65,114.81977 24.56,117.56977 26,117.79977 C 26,117.46977 26,117.12977 26,116.79977 C 26,115.46977 26,114.12977 26,112.79977 z M 27,117.79977 C 25.94,121.14977 23.91,123.30977 22,123.79977 C 0.8,129.19977 13.16,90.499772 27,110.79977 C 28.65,110.93977 28.65,117.65977 27,117.79977 z M 25,132.79977 C 25.54,138.33977 24.82,142.61977 21,143.79977 C 12.72,147.56977 4.86,139.66977 8,131.79977 C 9.24,129.70977 10.91,128.03977 13,126.79977 C 18.24,125.28977 24.4,126.87977 25,132.79977 z M 23,133.79977 C 22.16,132.22977 19.07,127.83977 17,130.79977 C 18.76,131.69977 20.1,133.03977 21,134.79977 C 23.72,134.07977 20.28,139.51977 23,138.79977 C 23,138.46977 23,138.12977 23,137.79977 C 23,136.46977 23,135.12977 23,133.79977 z M 25,154.79977 C 27.44,156.02977 25.12,160.81977 24,161.79977 L 24,162.79977 C -0.44,175.30977 12.31,132.80977 25,154.79977 z M 24,156.79977 C 23.93,153.86977 21.71,153.08977 20,151.79977 C 17.44,151.75977 18.78,152.53977 19,153.79977 C 20.46,154.66977 22.17,155.29977 22,157.79977 C 23.23,158.91977 24.05,158.66977 24,156.79977 z M 26,175.79977 C 28.34,175.53977 26.58,171.40977 26,170.79977 C 25.67,170.79977 25.33,170.79977 25,170.79977 C 22.1,171.35977 26.53,172.35977 26,173.79977 C 26,174.46977 26,175.12977 26,175.79977 z M 27,177.79977 C 24.6,178.39977 22.44,179.23977 19,178.79977 C 14.03,174.24977 19.55,164.58977 26,168.79977 C 29.31,168.76977 30.65,176.97977 27,177.79977 z M 53,268.79977 C 51.22,264.24977 47.44,261.69977 46,256.79977 C 52.71,244.47977 61.7,222.77977 48,211.79977 C 49.5,216.27977 49.88,225.64977 47,228.79977 C 45.35,226.44977 44.82,222.97977 42,221.79977 C 39.91,225.37977 39.98,231.10977 34,230.79977 C 37.52,218.01977 31.13,207.18977 24,201.79977 C 31.21,197.78977 43.51,200.08977 48,204.79977 C 48,205.12977 48,205.46977 48,205.79977 C 49.5,205.77977 52.09,209.51977 53,206.79977 C 51.91,206.54977 52.32,204.80977 51,204.79977 L 51,203.79977 C 49.76,201.70977 48.09,200.03977 46,198.79977 C 36.27,189.63977 21.21,202.36977 12,194.79977 C 12.24,190.36977 13.07,186.53977 17,185.79977 C 17.69,183.81977 19.67,183.12977 22,182.79977 L 25,182.79977 C 26.72,181.13977 35.28,181.13977 37,182.79977 C 54.33,183.80977 57.84,198.62977 63,211.79977 C 65.21,211.67977 63.42,207.55977 64,205.79977 C 63.42,204.03977 65.21,199.91977 63,199.79977 L 63,183.79977 C 67.19,177.98977 73.19,173.98977 83,173.79977 C 83,173.79977 98.67,172.79977 101,172.79977 C 125.88,172.91977 134.87,188.92977 142,206.79977 C 142.14,208.65977 142.66,210.13977 144,210.79977 C 144.32,208.44977 145.58,207.04977 145,203.79977 C 147.89,182.34977 158.1,168.23977 181,166.79977 L 188,165.79977 L 206,165.79977 L 214,166.79977 C 224.04,166.42977 229.11,171.01977 235,174.79977 C 236.91,177.54977 239.25,179.88977 242,181.79977 C 247.7,188.75977 251.23,197.89977 252,209.79977 C 256.26,203.38977 256.92,193.38977 262,187.79977 C 265.09,185.54977 267.75,182.88977 270,179.79977 C 275.63,176.09977 281.6,172.73977 291,172.79977 C 295.33,172.79977 299.67,172.79977 304,172.79977 C 326.51,171.75977 338.72,185.88977 333,209.79977 C 332.67,209.79977 332.33,209.79977 332,209.79977 C 332,210.79977 332,211.79977 332,212.79977 C 333.42,212.88977 334.83,212.96977 335,211.79977 C 338.78,192.93977 353.94,181.14977 378,185.79977 C 382.43,185.36977 384.33,187.46977 385,190.79977 L 385,193.79977 C 383.71,195.50977 382.93,197.72977 380,197.79977 C 373.69,198.76977 372.01,195.11977 366,195.79977 L 360,195.79977 C 356.33,196.11977 354.47,198.26977 351,198.79977 C 348.91,200.03977 347.24,201.70977 346,203.79977 L 346,204.79977 C 341.62,205.66977 346.13,210.17977 347,205.79977 C 352.48,202.60977 362.44,198.57977 371,201.79977 C 373.03,204.30977 367.16,205.75977 365,209.79977 C 362.17,215.07977 361.47,222.88977 363,230.79977 C 358.17,230.28977 356.25,226.88977 356,221.79977 C 352.42,222.21977 351.19,224.98977 351,228.79977 C 347.13,227.05977 347.23,216.94977 349,212.79977 C 329.69,223.56977 356.58,251.86977 344,266.79977 C 343,267.75977 342.94,268.67977 341,268.79977 C 341,268.79977 72,268.79977 53,268.79977 z" /><path
     id="Kontur"
     transform="matrix(1.0177615,0,0,1.0177615,0,-3.2002185)"
     d="M 181.78125,0 C 181.78125,-3.8578082e-14 187.73883,12.92246 186.6875,14.75 C 181.26383,13.792997 173.90625,11.78125 173.90625,11.78125 L 173.90625,29.46875 C 173.90625,29.468751 181.33261,25.747411 186.6875,25.53125 C 186.6875,25.53125 186.00192,39.473503 185.6875,40.9375 C 184.58706,46.105706 179.87795,47.075127 174.90625,51.09375 C 168.52951,56.242307 165.4297,67.254647 167.03125,66.8125 C 165.80306,70.10404 172.01642,70.881384 169,72.71875 C 164.2936,77.2876 161.54814,67.480633 155.25,66.8125 C 150.5829,66.321229 148.46815,68.951936 143.4375,70.75 C 142.70058,66.898408 139.55927,65.466729 136.5625,63.875 L 132.5625,63.875 L 129.6875,63.875 C 126.95602,65.07371 124.2765,66.315053 122.8125,68.78125 C 122.76337,67.523592 121.56864,67.435479 121.84375,65.84375 C 119.60354,64.478006 118.03033,62.419375 115.9375,60.90625 C 109.24634,57.644191 104.46336,62.613365 100.21875,64.84375 C 95.807107,55.676574 79.806258,58.830233 77.625,67.78125 C 77.133727,63.684023 73.169269,63.075483 69.75,61.90625 L 64.84375,61.90625 C 59.174448,63.114784 56.740884,67.550545 55.03125,72.71875 C 48.173061,67.609497 37.634862,71.057603 35.375,78.59375 C 35.257094,80.224785 35.89795,87.506598 34.375,84.5 C 26.642343,82.367871 20.920085,86.255922 17.6875,91.375 L 17.6875,99.25 C 18.198425,100.70417 19.145325,101.70208 19.65625,103.15625 C 13.397416,103.77526 9.6163103,106.89472 6.875,111.03125 L 6.875,118.875 C 7.9754543,121.37067 9.2993753,123.69825 10.8125,125.78125 C 1.7239259,128.6208 2.7850787,144.27015 10.8125,147.375 C 2.7654274,153.11308 5.9816943,167.63426 15.71875,169 C 12.289656,171.99676 14.628121,177.02791 15.71875,180.78125 C 14.362834,180.74193 13.567289,181.2605 12.78125,181.78125 C 10.688422,183.29436 9.1152106,185.32176 6.875,186.6875 C -3.1469948,204.28494 18.987477,201.48932 25.53125,212.21875 C 31.731131,222.39794 23.89834,227.23485 23.59375,235.8125 C 23.279335,244.71438 35.328712,257.29313 28.5,265.28125 C 27.113503,266.44303 25.137526,267.02572 22.84375,267.28125 L 26.21875,267.28125 C 23.656829,267.57242 20.688219,267.43681 17.6875,267.28125 L 14.125,267.28125 C 11.590967,267.15249 9.0411487,267.0105 6.6875,267.0625 C 5.6754094,267.08487 4.7329036,267.16717 3.8125,267.28125 L 7.5625,267.28125 C 6.1789834,267.4562 4.9134772,267.75489 3.84375,268.25 L 3.84375,543.34375 C 4.1326808,543.44201 4.5717242,550.24603 4.8125,551.21875 C 7.6825465,575.09466 14.7994,594.62063 24.34375,611.6875 C 55.538652,671.05312 119.15634,709.75 193.09375,709.75 C 283.99141,709.75001 359.97421,650.26783 378.8125,568.15625 C 381.27901,558.9105 383.15441,549.04902 384.28125,538.4375 L 384.28125,269.21875 C 378.80094,266.08458 365.9761,270.42871 360.5,267.28125 L 363.84375,267.28125 C 363.35309,267.00482 362.9274,266.68344 362.5625,266.28125 C 362.55268,264.32598 359.87649,265.02611 360.59375,262.34375 C 360.59374,259.39612 360.59375,256.44765 360.59375,253.5 C 368.43448,242.3186 364.92647,230.8788 363.53125,215.1875 C 374.68318,207.39588 398.29828,190.9801 374.34375,180.78125 C 377.00645,177.11633 376.25387,171.92799 373.375,169 C 380.36091,167.50652 382.15646,156.47088 377.3125,151.3125 C 387.78648,148.46309 385.97858,132.12819 377.3125,128.71875 C 386.45021,121.31032 380.87436,105.79313 369.4375,105.125 C 369.3982,103.76908 369.8855,102.97354 370.40625,102.1875 L 370.40625,97.28125 C 369.00122,90.167598 364.11997,86.513904 354.6875,87.4375 C 353.33158,90.562004 353.72858,83.975596 353.71875,82.53125 C 352.06806,73.285468 340.82641,71.038272 333.09375,75.65625 C 333.16252,70.026245 328.96006,68.67349 326.21875,65.84375 L 318.34375,65.84375 C 314.19741,65.961654 313.38869,69.384258 310.5,70.75 C 308.59386,60.069696 291.36305,61.712753 287.875,69.75 C 286.67628,66.035968 283.89267,63.926327 280.03125,62.875 L 274.125,62.875 C 271.68827,64.368474 268.28168,64.882732 267.25,67.78125 C 266.72924,68.567289 266.24195,69.394083 266.28125,70.75 C 264.55198,69.865705 263.22804,68.541785 262.34375,66.8125 C 255.64277,63.127946 247.45651,66.069096 244.65625,71.71875 C 244.46957,72.514617 243.6875,72.704951 243.6875,73.6875 C 241.95822,72.803211 240.63429,71.479285 239.75,69.75 C 237.89298,69.966162 237.57126,68.653519 235.8125,68.78125 L 229.90625,68.78125 C 225.22932,69.999615 223.03742,73.704631 221.0625,77.625 C 219.58868,75.492869 215.44296,76.059415 215.1875,72.71875 C 221.77058,66.381312 216.11947,56.582223 212.21875,52.0625 C 211.00038,50.008973 209.36603,48.37461 207.3125,47.15625 C 202.83208,46.704277 200.64235,42.455592 199.71875,37.5625 C 198.93271,33.357194 199.07573,28.645929 199.46875,25.53125 C 204.42079,26.150256 212.21875,29.46875 212.21875,29.46875 L 212.21875,11.78125 C 212.21874,11.78125 204.69591,14.415934 199.46875,14.75 C 200.73623,9.4737151 204.375,-1.1564823e-18 204.375,0 L 181.78125,0 z M 186.6875,2.9375 L 199.46875,2.9375 C 197.83771,7.5260015 196.5,17.6875 196.5,17.6875 L 209.28125,15.71875 L 209.28125,24.5625 L 196.5,22.59375 C 196.5,22.593752 195.78614,32.868366 196.90625,38.125 C 197.51543,40.964566 199.46875,46.1875 199.46875,46.1875 L 186.6875,46.1875 C 186.6875,46.187503 187.75341,43.162281 188.15625,41.53125 C 189.53182,36.097754 189.94924,29.717227 189.625,22.59375 C 183.80831,22.014048 175.875,24.5625 175.875,24.5625 L 175.875,15.71875 L 189.625,17.6875 L 186.6875,2.9375 z M 201.96875,49.84375 C 207.44617,49.900613 210.25,54.456059 210.25,57 C 206.38662,56.999999 199.46875,57 199.46875,57 L 199.46875,50.125 C 200.35918,49.930947 201.18626,49.835626 201.96875,49.84375 z M 184.34375,50 C 185.05537,49.974707 185.84865,50.023061 186.6875,50.125 L 186.6875,57 L 175.875,57 C 177.34515,53.311758 179.36243,50.17705 184.34375,50 z M 189.625,50.125 L 196.5,50.125 L 196.5,60.90625 L 214.1875,60.90625 L 214.1875,65.84375 L 170.96875,65.84375 L 170.96875,60.90625 L 189.625,60.90625 L 189.625,50.125 z M 111.03125,62.84375 C 112.19065,62.843749 113.33992,63.201954 113.96875,63.875 C 116.84762,63.943779 117.60751,66.101092 118.875,67.78125 C 121.42963,72.969106 119.14093,80.886741 113,80.5625 C 111.5753,80.022096 107.92672,81.72588 108.09375,79.59375 L 105.125,79.59375 C 102.78653,77.599178 100.69005,71.465807 103.15625,67.78125 C 104.42374,66.101092 105.21488,63.943778 108.09375,63.875 C 108.72258,63.201954 109.87184,62.84375 111.03125,62.84375 z M 87.4375,62.875 L 92.375,62.875 C 95.951478,63.228717 97.896283,65.204773 98.25,68.78125 C 99.851552,68.339108 99.851554,74.129647 98.25,73.6875 C 97.925757,75.976842 97.257946,77.915792 95.3125,78.59375 L 94.3125,78.59375 C 93.565766,80.214959 86.215487,80.214955 85.46875,78.59375 L 83.53125,78.59375 C 83.108753,76.726912 81.415118,76.134046 81.5625,73.6875 C 79.960943,74.129651 79.960946,68.339103 81.5625,68.78125 C 81.916214,65.204778 83.861023,63.228717 87.4375,62.875 z M 67.625,64.3125 C 73.109745,64.48595 78.258775,68.747674 75.65625,77.625 C 75.833109,78.460166 75.286855,78.534797 74.6875,78.59375 C 66.237586,93.017566 49.421712,69.461728 63.875,64.84375 C 65.085376,64.456872 66.35929,64.272474 67.625,64.3125 z M 299.6875,65.625 C 301.20061,65.625 302.7036,66.00681 302.625,66.8125 C 305.46457,67.244824 307.09893,68.879185 307.53125,71.71875 C 309.15245,71.85631 309.15246,78.456193 307.53125,78.59375 C 306.30306,85.373339 300.88508,81.863117 293.78125,82.53125 C 289.18291,78.994075 289.89986,67.244821 296.71875,66.8125 C 296.64015,66.006812 298.17438,65.625 299.6875,65.625 z M 132.5625,66.375 C 137.8093,66.374998 142.6538,72.90671 142.09375,78.28125 C 141.81864,80.963608 140.17828,83.360244 136.5625,84.5 C 131.18795,86.189984 128.28895,82.861663 124.78125,80.5625 L 124.78125,78.59375 C 123.16987,78.750962 123.16987,72.561542 124.78125,72.71875 C 127.01163,68.140074 129.84084,66.375 132.5625,66.375 z M 278.53125,66.90625 C 284.50794,67.071713 289.4941,71.505214 282.96875,82.53125 L 279.03125,82.53125 C 279.18847,84.142629 272.99904,84.14263 273.15625,82.53125 C 261.55541,73.539088 270.84694,66.693511 278.53125,66.90625 z M 321.6875,68.0625 C 326.23054,68.172573 330.83243,71.067685 330.125,79.59375 C 330.28221,80.733507 329.92264,81.346339 329.15625,81.5625 C 324.59723,97.391359 301.52649,74.54881 317.375,68.78125 C 318.67197,68.30963 320.17315,68.025808 321.6875,68.0625 z M 255.625,68.3125 C 258.90097,68.330459 262.04501,70.061896 263.3125,73.6875 C 264.46208,73.844712 264.15529,75.465593 264.3125,76.625 C 265.49156,87.914485 250.5945,88.646675 246.625,81.5625 C 244.39584,73.014331 250.16505,68.282563 255.625,68.3125 z M 115.9375,68.78125 C 113.76606,68.89916 115.53863,72.958215 114.96875,74.6875 C 116.26571,77.143872 111.07023,77.738933 113.96875,78.59375 C 115.38362,78.043527 116.38727,77.07112 116.9375,75.65625 C 116.9375,74.015392 116.9375,72.390856 116.9375,70.75 C 116.75082,69.954134 115.9375,69.763799 115.9375,68.78125 z M 70.4375,68.9375 C 69.890141,68.974526 69.324722,69.219424 68.78125,69.75 C 71.12954,70.997838 72.787528,72.950269 72.71875,76.625 C 73.563743,78.50167 73.302107,75.577646 74.6875,75.65625 C 74.966915,72.678512 72.809386,68.777057 70.4375,68.9375 z M 94.9375,69.125 C 94.527167,69.215532 94.285633,69.745191 94.3125,70.75 C 94.626918,73.029511 94.169091,74.516494 93.34375,75.65625 C 92.744394,76.530716 92.154866,77.418665 93.34375,77.625 C 96.271743,76.956867 96.625142,73.699845 96.28125,69.75 C 95.828046,69.33733 95.441066,69.146129 95.125,69.125 C 95.059153,69.120598 94.996119,69.112067 94.9375,69.125 z M 152.21875,70.28125 C 157.74443,69.837169 164.0634,75.3531 162.8125,81.5625 C 162.47844,83.17388 161.65955,84.847545 160.15625,86.46875 C 155.58739,88.355246 147.78402,87.781712 145.40625,84.5 L 145.40625,82.53125 C 144.40405,82.629504 144.03561,80.258762 144.28125,78.5 C 144.42863,77.42902 144.79707,76.566047 145.40625,76.625 C 146.65256,72.379472 149.32435,70.513862 152.21875,70.28125 z M 198,70.59375 C 202.76408,70.619599 207.31858,70.860248 211.25,71.71875 C 209.35368,76.700274 201.8462,76.103183 202.40625,83.53125 C 198.48587,78.697115 188.04374,76.901247 183.75,82.53125 C 183.37663,79.740812 182.13458,77.831903 180.5625,76.25 C 178.5581,74.2063 175.97943,72.724922 173.90625,70.75 C 181.48415,71.155299 190.05988,70.550668 198,70.59375 z M 282,71.71875 C 281.43012,73.448038 283.17143,77.507094 281,77.625 C 281.03929,78.980917 280.552,79.776461 280.03125,80.5625 C 283.82387,80.424941 284.067,76.747199 283.96875,72.71875 C 282.98621,72.71875 282.79586,71.905434 282,71.71875 z M 231.75,71.78125 C 238.48355,71.380358 246.74423,78.389488 240.71875,85.46875 C 240.70893,87.424019 238.03274,86.723893 238.75,89.40625 L 228.9375,89.40625 C 228.32831,86.743544 224.82314,86.979995 225,83.53125 C 223.38863,83.688462 223.38862,77.467792 225,77.625 C 225.93957,73.685593 228.6893,71.963474 231.75,71.78125 z M 305.1875,72.0625 C 304.77716,72.153031 304.56688,72.682691 304.59375,73.6875 C 305.23242,77.273806 303.93179,78.921644 302.625,80.5625 C 305.30736,81.279758 304.60723,78.603575 306.5625,78.59375 C 306.56249,78.269513 306.5625,77.949241 306.5625,77.625 C 306.56249,76.31821 306.5625,74.99429 306.5625,73.6875 C 306.56249,73.363263 306.5625,73.042991 306.5625,72.71875 C 306.10929,72.306078 305.69107,72.083629 305.375,72.0625 C 305.30915,72.058098 305.24612,72.049567 305.1875,72.0625 z M 49.0625,72.625 C 52.512115,72.571845 55.547874,75.655835 56,84.5 C 56.176859,85.335167 55.630605,85.409797 55.03125,85.46875 C 53.31179,89.084526 49.518339,91.551859 46.1875,91.375 C 30.38766,90.518343 40.892357,72.750899 49.0625,72.625 z M 137.5625,72.71875 C 137.5625,73.042991 137.5625,73.363259 137.5625,73.6875 C 137.0221,75.1122 138.69463,78.760783 136.5625,78.59375 C 136.60179,79.949671 136.1145,80.776461 135.59375,81.5625 C 138.74773,82.427145 137.63493,78.996595 139.53125,78.59375 C 139.73759,75.77384 139.28196,73.622695 137.5625,72.71875 z M 261.34375,73.6875 C 258.95615,75.230105 261.76657,81.951546 258.40625,82.53125 C 259.01544,84.329313 262.52061,80.824135 262.34375,78.59375 C 262.34375,77.935447 262.34375,77.283307 262.34375,76.625 C 262.34375,76.300762 262.34375,75.980491 262.34375,75.65625 C 261.39067,75.626772 261.55991,74.453888 261.34375,73.6875 z M 326.6875,74.96875 C 326.45571,75.007669 326.29613,75.210419 326.21875,75.65625 C 326.69036,79.409583 325.93998,81.939521 324.25,83.53125 C 326.93237,84.248514 326.20098,81.572325 328.15625,81.5625 C 328.15625,81.238262 328.15625,80.886741 328.15625,80.5625 C 328.15625,79.255709 328.15625,77.93179 328.15625,76.625 C 328.15625,76.300762 328.15625,75.980491 328.15625,75.65625 C 327.6097,75.281652 327.0738,74.903887 326.6875,74.96875 z M 172.125,75.59375 C 174.78371,75.514222 176.77291,76.116655 178.0625,77.40625 C 179.53632,78.880071 180.12692,81.237939 179.8125,84.5 C 180.07778,88.734785 173.39784,91.159159 169.96875,88.4375 L 167.03125,88.4375 C 166.5105,87.651465 166.0232,86.824667 166.0625,85.46875 C 165.03083,85.753687 164.64274,83.458677 164.9375,81.90625 C 165.10454,81.041611 165.49262,80.405292 166.0625,80.5625 L 166.0625,79.59375 C 167.32999,77.913593 168.08988,75.725028 170.96875,75.65625 C 171.37651,75.616945 171.74519,75.60511 172.125,75.59375 z M 158.1875,75.65625 C 158.1875,75.980489 158.1875,76.300759 158.1875,76.625 C 157.61762,78.354288 159.39018,82.413344 157.21875,82.53125 C 157.08119,83.690657 155.46981,84.75149 157.21875,85.46875 C 160.22535,84.387945 161.58712,77.503441 158.1875,75.65625 z M 342.59375,76.6875 C 347.57305,76.716434 352.24708,79.966447 350.78125,87.4375 C 350.93847,88.577256 350.54764,89.190089 349.78125,89.40625 C 347.53122,96.58868 338.15973,94.012203 334.0625,90.40625 C 329.25415,81.955717 336.1918,76.650302 342.59375,76.6875 z M 213.375,76.84375 C 215.11075,76.845368 216.90895,77.463132 218.46875,78.90625 C 218.69376,79.112583 218.87759,79.357938 219.09375,79.59375 L 219.09375,81.5625 C 221.37326,84.235035 220.04129,91.614785 215.1875,90.40625 C 215.19733,88.450976 217.87351,89.151107 217.15625,86.46875 L 218.125,86.46875 C 218.65558,82.990531 217.29998,81.397666 215.1875,80.5625 C 217.26068,84.384612 215.35088,88.057959 213.21875,90.40625 L 207.3125,90.40625 C 205.46531,88.146386 204.93736,85.780328 205.28125,83.6875 C 205.92973,79.830378 209.55635,76.840187 213.375,76.84375 z M 238.28125,77.09375 C 237.93982,77.051992 237.7616,77.336088 237.78125,78.59375 C 238.41991,82.180056 237.11929,83.827894 235.8125,85.46875 C 238.49485,86.186008 237.79473,83.541075 239.75,83.53125 C 239.75,81.566157 239.75,79.590097 239.75,77.625 C 239.13099,77.516918 238.62269,77.135508 238.28125,77.09375 z M 47.96875,77.5625 C 47.392885,77.564647 46.794224,77.593067 46.1875,77.625 C 45.86326,77.625 45.511741,77.625 45.1875,77.625 C 47.280328,80.120673 53.308137,78.697111 53.0625,83.53125 C 54.01557,83.501778 53.815089,82.328888 54.03125,81.5625 C 53.186257,80.766638 53.447893,78.849213 52.0625,78.59375 C 51.192946,77.746306 49.696346,77.556053 47.96875,77.5625 z M 176.4375,78.96875 C 176.24093,78.959666 176.02975,79.160815 175.875,79.59375 C 175.33461,81.018446 177.03838,84.667033 174.90625,84.5 C 175.18137,86.09173 173.95538,86.179838 173.90625,87.4375 C 177.06023,88.302142 175.94743,84.902845 177.84375,84.5 C 178.31477,82.607981 177.2893,79.008105 176.4375,78.96875 z M 347.8125,81.5625 C 345.90635,82.623655 349.68551,88.345098 345.84375,89.40625 C 345.66688,90.241417 346.2444,90.347297 346.84375,90.40625 C 349.11343,90.710838 347.92423,87.54558 349.78125,87.4375 C 349.98759,84.617585 349.53196,82.466445 347.8125,81.5625 z M 191.84375,81.875 C 200.88932,82.031229 204.69319,92.885285 198.46875,98.25 C 194.12589,97.709602 202.12163,94.584281 199.46875,89.40625 C 195.5975,85.652916 199.16271,94.909655 196.5,95.3125 L 196.5,96.28125 C 194.36787,98.403555 187.66022,95.968289 186.6875,99.25 C 179.94721,96.489039 183.05792,85.046574 187.65625,82.53125 C 189.1485,82.070679 190.55152,81.852681 191.84375,81.875 z M 88.59375,84.375 C 117.23529,83.939862 150.60808,92.462833 179.8125,93.34375 C 179.44895,98.384226 184.7289,99.322113 181.78125,104.15625 C 161.59971,98.683453 126.99905,98.721942 101.1875,95.3125 L 92.375,95.3125 C 39.238778,89.417207 34.211047,149.58282 55.03125,184.71875 C 50.865244,187.74499 45.347867,176.39543 35.375,178.8125 C 26.45346,154.46494 25.605948,118.75912 39.3125,103.15625 C 51.614621,89.149717 68.996911,84.672725 88.59375,84.375 z M 292.21875,86.3125 C 328.33428,86.341211 359.99594,99.6776 357.65625,138.53125 L 357.65625,144.4375 C 357.71521,157.92787 355.86468,169.49574 352.75,179.8125 C 346.09814,182.44572 337.52504,188.01362 333.09375,189.625 C 338.8613,171.70331 345.81459,153.37674 342.90625,129.6875 C 336.08737,74.094903 249.69234,101.34836 203.375,103.15625 C 200.13259,100.75883 203.16647,98.407527 204.375,95.3125 C 206.3794,93.062462 212.52082,94.941331 216.15625,94.3125 C 237.32034,96.818 261.45459,87.559379 284.9375,86.46875 C 287.37608,86.355758 289.81104,86.310586 292.21875,86.3125 z M 29.53125,87.28125 C 32.949885,87.214815 36.231014,88.845195 37.34375,92.375 C 40.252095,95.352121 37.271319,100.76281 35.375,102.1875 L 34.375,102.1875 C 31.820373,108.7804 22.688352,103.14674 20.625,100.21875 C 17.732623,92.137294 23.833524,87.391979 29.53125,87.28125 z M 355.4375,89.875 C 364.16653,89.363975 377.39616,109.28233 356.65625,108.09375 C 353.34507,104.62535 349.01486,102.82282 349.78125,97.28125 C 350.50204,92.106749 352.76535,90.031435 355.4375,89.875 z M 32.625,91.34375 C 31.9627,91.41836 31.599621,91.800209 31.4375,92.375 C 32.852371,92.925226 33.824773,93.89763 34.375,95.3125 C 34.374999,95.636739 34.375,95.957009 34.375,96.28125 C 35.789869,96.507238 34.722545,99.230349 36.34375,99.25 C 36.343751,97.609145 36.34375,95.953356 36.34375,94.3125 C 35.793524,92.897631 34.82112,91.925227 33.40625,91.375 C 33.12131,91.335699 32.845767,91.318879 32.625,91.34375 z M 362.5625,95.3125 C 363.69243,98.063634 363.69243,100.40512 362.5625,103.15625 C 361.95332,104.03072 361.37362,104.91866 362.5625,105.125 C 366.36497,103.98524 366.36496,96.452256 362.5625,95.3125 z M 193.40625,100.5625 C 197.11682,100.5986 200.59742,102.52858 201.4375,107.09375 C 203.03906,106.65161 203.03905,112.44215 201.4375,112 L 201.4375,113 C 201.36873,115.87887 199.18016,116.63876 197.5,117.90625 C 194.26742,119.95978 190.88883,119.95978 187.65625,117.90625 C 185.97609,116.63876 183.81878,115.87887 183.75,113 C 180.36021,105.74142 187.22195,100.50234 193.40625,100.5625 z M 18.15625,106.1875 C 20.661809,106.06305 23.556584,107.63688 26.53125,112 C 28.152454,112.13756 28.152455,118.73744 26.53125,118.875 C 25.489748,122.16653 23.501668,124.2998 21.625,124.78125 C 5.3515396,128.92638 9.2078263,106.63196 18.15625,106.1875 z M 197.96875,106.5625 C 197.62732,106.52074 197.48035,106.83609 197.5,108.09375 C 198.06988,111.93551 196.65136,113.78572 195.53125,115.9375 C 197.98763,116.10453 198.61393,114.43452 199.46875,113 C 199.46874,111.35914 199.46875,109.73461 199.46875,108.09375 C 199.46874,107.76951 199.46875,107.41799 199.46875,107.09375 C 198.84974,106.98567 198.31019,106.60426 197.96875,106.5625 z M 369.9375,108.84375 C 371.27623,108.84375 372.59607,109.23047 372.375,110.03125 C 375.95146,110.38497 377.92753,112.36102 378.28125,115.9375 C 379.88279,115.49535 379.8828,121.2859 378.28125,120.84375 C 376.87619,129.36244 362.96754,129.36245 361.5625,120.84375 C 359.96094,121.28589 359.96095,115.49535 361.5625,115.9375 C 361.91622,112.36102 363.89227,110.38497 367.46875,110.03125 C 367.24767,109.23047 368.59878,108.84375 369.9375,108.84375 z M 21.3125,110.03125 C 20.728958,110.01176 20.164719,110.30416 19.65625,111.03125 C 22.741452,110.89369 23.043523,113.54008 23.59375,115.9375 C 25.214956,115.95715 24.11638,118.64901 25.53125,118.875 C 25.53125,118.55076 25.53125,118.23049 25.53125,117.90625 C 25.53125,116.59946 25.53125,115.27554 25.53125,113.96875 C 24.912245,112.8118 23.063125,110.08974 21.3125,110.03125 z M 204.375,113.96875 C 206.47766,127.26263 207.85152,149.81399 217.15625,159.1875 C 214.69988,161.25084 210.28597,156.89054 205.34375,158.1875 C 210.08947,150.74959 199.567,143.51422 199.46875,141.5 C 199.37049,139.41698 211.82921,124.57743 199.46875,120.84375 C 201.52227,118.96708 203.82477,117.34872 204.375,113.96875 z M 375.15625,115.1875 C 375.11146,115.18597 375.07319,115.20115 375.03125,115.21875 C 374.29315,115.52853 374.01951,118.68214 374.34375,120.84375 C 375.64071,123.30012 370.47648,123.92643 373.375,124.78125 C 374.78986,124.23102 375.76227,123.25862 376.3125,121.84375 C 376.31251,120.2029 376.3125,118.57836 376.3125,116.9375 C 375.8504,115.70164 375.46977,115.1982 375.15625,115.1875 z M 181.34375,115.40625 C 182.43977,115.16351 182.40333,121.08722 185.6875,119.875 C 180.9025,124.30629 178.08257,136.85475 185.6875,140.5 C 181.50185,144.17473 178.46641,148.98102 179.8125,158.1875 C 175.7644,157.41127 174.77121,159.71808 170.96875,159.1875 C 177.70903,148.2419 180.89916,133.74128 180.78125,115.9375 C 180.99618,115.61326 181.18717,115.44092 181.34375,115.40625 z M 192.53125,121.6875 C 202.48672,121.00137 205.48308,149.64419 184.71875,135.59375 L 184.71875,133.625 C 183.10737,133.7822 183.10737,127.56154 184.71875,127.71875 C 187.54849,123.55152 190.23384,121.84584 192.53125,121.6875 z M 15.71875,127.21875 C 16.047616,127.20014 16.393588,127.21157 16.71875,127.21875 C 20.620695,127.30488 24.120353,129.26248 24.5625,133.625 C 25.093076,139.06831 24.378335,143.27809 20.625,144.4375 C 12.489499,148.14169 4.7897977,140.38891 7.875,132.65625 C 9.0933604,130.60271 10.727724,128.93711 12.78125,127.71875 C 13.746604,127.44057 14.732152,127.27459 15.71875,127.21875 z M 197.625,127.375 C 197.30171,127.3746 196.91267,127.47096 196.5,127.71875 C 198.10155,127.27659 198.10155,133.0984 196.5,132.65625 C 197.21726,135.3386 194.54108,134.60723 194.53125,136.5625 C 199.67796,137.81801 200.75009,127.37884 197.625,127.375 z M 18.375,130.6875 C 17.791458,130.66801 17.227219,130.92916 16.71875,131.65625 C 18.448035,132.54053 19.740706,133.86446 20.625,135.59375 C 23.297532,134.8863 19.921218,140.23868 22.59375,139.53125 C 22.59375,139.207 22.59375,138.85549 22.59375,138.53125 C 22.59375,137.22445 22.59375,135.90054 22.59375,134.59375 C 21.974744,133.43678 20.125625,130.74599 18.375,130.6875 z M 371.96875,131.375 C 379.53101,131.53069 382.89522,137.14428 381.21875,143.4375 C 381.39561,144.27266 380.84935,144.37855 380.25,144.4375 L 380.25,145.40625 C 379.19867,147.63662 377.26192,148.98021 374.34375,149.34375 C 362.23875,151.22041 361.09964,135.86156 368.46875,131.65625 C 369.71659,131.44131 370.88843,131.35276 371.96875,131.375 z M 378.28125,136.5625 C 375.89364,138.10509 378.70407,144.82655 375.34375,145.40625 C 375.44201,147.27308 379.15175,144.79342 379.25,143.4375 C 379.24999,141.79664 379.25,140.17211 379.25,138.53125 C 379.06331,137.73537 378.28125,137.54505 378.28125,136.5625 z M 192.59375,142.25 C 194.10687,142.25 195.60985,142.63181 195.53125,143.4375 C 200.59138,143.84034 205.39937,153.12152 200.4375,157.21875 C 195.9276,157.17944 201.88185,154.41735 200.4375,151.3125 C 198.58048,151.2044 199.76969,148.07041 197.5,148.375 C 198.52185,151.1556 198.52185,152.46939 197.5,155.25 C 196.9989,158.67908 191.06569,156.698 187.65625,157.21875 L 182.75,157.21875 C 181.85587,149.44679 183.91639,144.60673 189.625,143.4375 C 189.54639,142.63181 191.08063,142.25 192.59375,142.25 z M 16.75,148.90625 C 19.100024,148.79748 21.835006,150.52364 24.5625,155.25 C 26.959918,156.45852 24.694204,161.1621 23.59375,162.125 L 23.59375,163.09375 C 4.8332152,172.69662 8.3570558,149.29475 16.75,148.90625 z M 19.65625,152.28125 C 17.140925,152.24194 18.440089,153.01199 18.65625,154.25 C 20.090772,155.1048 21.792033,155.73113 21.625,158.1875 C 22.833534,159.28794 23.642877,159.05612 23.59375,157.21875 C 23.524972,154.33988 21.336408,153.54874 19.65625,152.28125 z M 369.90625,152.28125 C 370.98842,152.23324 372.16063,152.5382 373.375,153.28125 C 381.51049,155.60006 375.57478,170.6532 367.46875,165.0625 C 360.81168,162.69977 364.06256,152.54048 369.90625,152.28125 z M 374.34375,155.25 C 371.53366,155.38754 375.18509,161.98744 372.375,162.125 C 372.37499,162.44923 372.375,162.76951 372.375,163.09375 C 372.55185,163.92891 372.0056,164.0348 371.40625,164.09375 C 374.03949,166.92347 377.23244,158.07974 374.34375,155.25 z M 184.71875,166.0625 L 202.40625,166.0625 L 210.25,167.03125 C 220.11479,166.6677 225.11904,171.19222 230.90625,174.90625 C 232.78292,177.60825 235.07924,179.90458 237.78125,181.78125 C 243.38178,188.61978 246.83719,197.58892 247.59375,209.28125 C 251.77941,202.98311 252.44615,193.1487 257.4375,187.65625 C 260.47358,185.4455 263.07052,182.84857 265.28125,179.8125 C 270.81301,176.17707 276.67029,172.87855 285.90625,172.9375 C 290.1607,172.93749 294.43306,172.9375 298.6875,172.9375 C 320.80468,171.91564 332.80768,185.78852 327.1875,209.28125 C 326.86325,209.28124 326.54299,209.28125 326.21875,209.28125 C 326.21874,210.26379 326.21875,211.2362 326.21875,212.21875 C 327.61396,212.30717 328.98922,212.39958 329.15625,211.25 C 332.87028,192.71912 347.76613,181.11865 371.40625,185.6875 C 375.75895,185.265 377.62294,187.35311 378.28125,190.625 L 378.28125,193.5625 C 377.01375,195.24266 376.25387,197.43122 373.375,197.5 C 367.17511,198.45306 365.53012,194.86312 359.625,195.53125 L 353.71875,195.53125 C 350.11279,195.84566 348.28444,197.948 344.875,198.46875 C 342.82149,199.6871 341.18711,201.32147 339.96875,203.375 L 339.96875,204.375 C 335.66518,205.2298 340.08268,209.64731 340.9375,205.34375 C 346.32186,202.20941 356.12063,198.27369 364.53125,201.4375 C 366.52584,203.90368 360.7473,205.31175 358.625,209.28125 C 355.84437,214.4691 355.15295,222.13429 356.65625,229.90625 C 351.91055,229.40513 350.02689,226.06367 349.78125,221.0625 C 346.26373,221.47516 345.06168,224.19399 344.875,227.9375 C 341.07255,226.22785 341.16714,216.29633 342.90625,212.21875 C 323.93324,222.80079 350.36046,250.6118 338,265.28125 C 337.01746,266.2245 336.96864,267.13209 335.0625,267.25 C 334.88541,267.26061 334.57121,267.27115 334.375,267.28125 L 331.59375,267.28125 C 318.07861,267.99091 258.42544,267.43277 157.9375,267.28125 L 157.21875,267.28125 C 142.36507,267.2593 126.61176,267.25 110.03125,267.25 C 110.69938,260.68658 107.33353,258.18676 106.125,253.5 C 106.125,250.22812 106.125,246.95939 106.125,243.6875 C 113.99521,234.92315 114.25036,218.57648 109.0625,206.34375 C 103.59953,211.04033 100.95201,218.55228 98.25,226 C 94.801253,226.17685 95.037706,222.67168 92.375,222.0625 C 89.132591,217.11045 87.408024,210.62036 87.4375,202.40625 C 76.383831,208.61595 86.759542,223.51131 87.4375,232.875 C 88.007379,234.60428 86.266068,238.63209 88.4375,238.75 C 84.910149,258.32236 105.31314,253.9856 108.09375,267.25 C 89.425326,267.25001 70.730922,267.25 52.0625,267.25 C 50.313565,262.77941 46.60237,260.28324 45.1875,255.46875 C 51.7804,243.36377 60.617164,222.03838 47.15625,211.25 C 48.630074,215.65181 49.01724,224.84247 46.1875,227.9375 C 44.566296,225.6285 44.052037,222.22191 41.28125,221.0625 C 39.227724,224.58001 39.28189,230.21084 33.40625,229.90625 C 36.864819,217.34926 30.599321,206.73344 23.59375,201.4375 C 30.677925,197.49747 42.744607,199.7472 47.15625,204.375 C 47.156251,204.69923 47.15625,205.01951 47.15625,205.34375 C 48.630074,205.32409 51.168381,209.01628 52.0625,206.34375 C 50.991523,206.09811 51.421964,204.38483 50.125,204.375 L 50.125,203.375 C 48.90664,201.32147 47.241026,199.68711 45.1875,198.46875 C 35.627303,189.4686 20.830522,201.96914 11.78125,194.53125 C 12.017062,190.17855 12.857334,186.41459 16.71875,185.6875 C 17.396708,183.74205 19.335662,183.07424 21.625,182.75 L 24.5625,182.75 C 26.252483,181.11896 34.653767,181.11897 36.34375,182.75 C 53.371316,183.74237 56.8363,198.30984 61.90625,211.25 C 64.077683,211.13208 62.305122,207.07304 62.875,205.34375 C 62.305124,203.61446 64.077682,199.58666 61.90625,199.46875 L 61.90625,183.75 C 66.023129,178.04139 71.923699,174.09293 81.5625,173.90625 C 81.562497,173.90625 96.960662,172.9375 99.25,172.9375 C 123.69581,173.0554 132.52568,188.78561 139.53125,206.34375 C 139.66881,208.17129 140.18339,209.60152 141.5,210.25 C 141.81442,207.94099 143.03863,206.56828 142.46875,203.375 C 145.30832,182.29933 155.34339,168.44612 177.84375,167.03125 L 184.71875,166.0625 z M 22.125,168 C 23.187102,167.94032 24.34298,168.2244 25.53125,169 C 28.783486,168.97051 30.117552,177.03806 26.53125,177.84375 C 24.173133,178.43326 22.036217,179.24482 18.65625,178.8125 C 14.688597,175.18014 17.522557,168.25865 22.125,168 z M 365.5,169.96875 L 370.40625,169.96875 C 372.08642,172.41529 373.839,174.80768 372.375,177.84375 C 371.92302,181.99992 362.01447,181.99993 361.5625,177.84375 L 361.5625,173.90625 C 361.6804,171.41057 363.00433,170.08666 365.5,169.96875 z M 24.5625,170.96875 C 21.713109,171.51896 26.052001,172.49138 25.53125,173.90625 C 25.53125,174.56456 25.53125,175.21669 25.53125,175.875 C 27.830414,175.61953 26.101128,171.5681 25.53125,170.96875 C 25.207009,170.96873 24.886741,170.96875 24.5625,170.96875 z M 370.40625,173.90625 C 369.45319,173.93572 369.65366,175.10861 369.4375,175.875 C 369.4375,176.19923 369.4375,176.51951 369.4375,176.84375 C 367.71805,180.40057 370.08201,180.40058 370.40625,176.84375 C 370.7305,176.84375 371.08201,176.84375 371.40625,176.84375 C 371.40626,176.51951 371.40625,176.19924 371.40625,175.875 C 370.45319,175.84552 370.62241,174.67264 370.40625,173.90625 z M 196.78125,176.46875 C 195.53177,176.47252 194.23699,176.4901 192.90625,176.53125 C 150.33243,177.83803 154.25,198.8125 154.25,198.8125 C 154.25,198.81251 163.41188,184.71875 195.1875,184.71875 C 226.95329,184.71874 235.8125,202.10801 235.8125,197.84375 C 235.8125,193.72227 235.51516,176.35175 196.78125,176.46875 z M 294.4375,181.90625 C 285.09073,182.17159 275.77709,184.65447 270.1875,188.65625 C 267.15143,190.86697 264.55448,193.46393 262.34375,196.5 C 262.72694,198.18998 260.88958,199.03643 262.34375,199.46875 C 270.5775,193.29834 279.79958,188.07875 293.78125,187.65625 C 295.4221,187.65624 297.04664,187.65625 298.6875,187.65625 C 310.21281,187.58746 316.84158,192.4519 324.25,196.5 C 321.56397,186.19798 309.11842,181.9485 296.3125,181.90625 C 295.68999,181.9042 295.06062,181.88856 294.4375,181.90625 z M 99.25,182.75 C 69.773548,182.74999 70.75,199.46875 70.75,199.46875 C 70.75,199.46874 80.245596,189.625 99.5625,189.625 C 118.88923,189.62499 128.71875,202.40625 128.71875,202.40625 C 128.71875,202.40624 128.72646,182.75 99.25,182.75 z M 176.84375,196.5 C 175.16359,197.76748 173.00628,198.55863 172.9375,201.4375 C 172.65255,211.87215 176.71747,217.93548 179.8125,225 C 179.81249,227.28933 179.8125,229.58566 179.8125,231.875 C 178.08321,235.6185 177.307,239.09137 179.8125,242.6875 C 181.40422,247.32513 185.43349,249.50323 188.65625,252.5 C 190.66065,255.7326 192.22226,259.40593 194.53125,262.34375 C 195.82822,259.71054 197.17179,257.10198 198.46875,254.46875 C 200.08013,254.62597 200.08013,248.43654 198.46875,248.59375 C 196.47418,230.22009 205.97623,223.35532 207.3125,208.3125 C 209.25795,207.25134 209.16586,194.76234 205.34375,199.46875 C 197.09035,201.37489 200.1947,214.60748 193.5625,218.125 C 193.66075,215.07909 193.1167,212.6747 191.59375,211.25 C 189.07843,213.31334 189.12422,217.94197 186.6875,220.09375 C 181.24418,214.40478 179.42785,205.04817 176.84375,196.5 z M 277.09375,199.46875 C 271.47358,208.37063 278.96644,217.80157 278.0625,226.96875 C 277.20769,235.62499 270.00958,244.22694 277.09375,252.5 C 278.97042,255.20202 281.26674,257.52958 283.96875,259.40625 C 285.3345,260.00561 284.08854,263.16512 285.90625,263.3125 C 290.76005,258.30152 289.70765,252.35943 292.8125,244.65625 C 297.97086,231.87328 313.62954,224.99252 302.625,206.34375 C 302.96889,212.25869 301.25195,216.09698 298.6875,219.09375 C 292.75292,217.82626 289.40192,213.98766 286.90625,209.28125 C 285.75666,213.36865 286.09325,218.9402 282.96875,221.0625 C 280.71871,214.14535 281.31871,204.41097 277.09375,199.46875 z M 347.8125,259.40625 C 349.62039,260.88007 350.2838,263.49698 352.75,264.3125 C 355.66276,266.67708 354.07597,267.20003 351.4375,267.28125 L 348.625,267.28125 C 348.52934,267.27837 348.4393,267.28418 348.34375,267.28125 C 347.1003,267.24313 345.86499,267.19525 344.875,267.25 C 345.38594,264.16481 346.58431,261.78402 347.8125,259.40625 z M 40.28125,260.375 C 42.767098,261.16105 42.794055,264.43406 44.21875,266.28125 C 43.992967,266.77143 43.130507,267.08749 42.0625,267.28125 L 45.0625,267.28125 C 43.693885,267.53456 41.993615,267.53456 40.625,267.28125 L 37.53125,267.28125 C 36.463242,267.08749 35.600782,266.77143 35.375,266.28125 C 37.988579,265.2987 38.610918,262.3008 40.28125,260.375 z M 10.59375,274.125 L 190.6875,274.125 L 190.6875,700.5625 C 126.05367,699.32449 76.585386,670.58794 46.21875,632.75 C 34.401477,618.02159 23.046946,599.08631 16.34375,578.1875 C 13.772265,569.76701 11.989232,561.05991 11.21875,552.1875 L 11.21875,477.53125 C 11.006866,478.25833 10.796002,478.98184 10.59375,479.71875 L 10.59375,274.125 z" /><path
     id="Hut"
     style="fill:#c70c1e;fill-rule:evenodd"
     d="M 179,104.79977 C 184.938,151.40477 157.434,164.56777 142,189.79977 C 131.772,172.06277 97.358,159.45377 72,169.79977 C 66.218,172.15877 63.522,176.65177 58,177.79977 C 51.516,160.40477 44.758,132.97477 53,116.79977 C 71.444,80.606772 137.208,107.74177 179,104.79977 z" /><path
     id="Hut_1_"
     style="fill:#c70c1e;fill-rule:evenodd"
     d="M 338,178.79977 C 319.892,166.23677 287.919,159.64077 268,174.79977 C 261.363,179.84977 260.156,186.36777 253,190.79977 C 237.396,164.41677 209.946,153.55677 213,105.79977 C 251.786,108.22177 303.016,84.972772 332,105.79977 C 350.51,119.09977 345.564,155.68377 338,178.79977 z" /><text
     style="font-size:12px"
     y="290.13327"
     x="205.57571"
     id="text6"><tspan
       id="tspan8"
       style="font-size:12px;fill:#ffffff;font-family:Myriad-Roman"
       y="290.13327"
       x="205.57571">Wappen von Salzburg</tspan><tspan
       id="tspan10"
       style="font-size:12px;fill:#ffffff;font-family:Myriad-Roman"
       y="304.53326"
       x="205.57571">David Liuzzo 2006</tspan></text>
<path
     id="Gelb"
     style="fill:#f5be15;fill-rule:evenodd"
     d="M 10.90871,275.79977 L 197.90871,275.79977 C 197.90871,275.79977 197.90871,565.13277 197.90871,709.79977 C 130.79671,708.54277 79.43971,679.30677 47.90871,640.79977 C 30.33971,619.34377 13.75171,589.10277 10.90871,556.79977 L 10.90871,275.79977 z" /><path
     id="Rot_1_"
     style="fill:#c70c1e;fill-rule:evenodd"
     d="M 383.90871,539.79977 C 369.97171,641.42977 303.58671,701.49277 202.90871,709.79977 C 202.90871,654.13277 202.90871,539.79977 202.90871,539.79977 L 383.90871,539.79977 z" /><rect
     id="Silber"
     style="fill:#ffffff;fill-rule:evenodd"
     y="409.79977"
     x="202.90871"
     height="125"
     width="181" /><rect
     id="Rot_2_"
     style="fill:#c70c1e;fill-rule:evenodd"
     y="275.79977"
     x="202.90871"
     height="128"
     width="181" /><g
     transform="translate(3.90871,-3.2002276)"
     id="Lwe">
        <g
   id="Grau">
                <path
   id="path20"
   style="fill:#cbcbc9"
   d="M 151,591 C 154.294,586.466 148.166,584.248 145,583 C 144.117,577.506 154.696,571.85 147,569 C 143.352,567.314 142.429,562.904 143,557 C 141.342,558.725 141.342,567.275 143,569 C 143.241,570.759 144.721,571.279 147,571 C 147.178,574.511 143.622,574.289 143,577 C 142.128,579.479 141.047,584.753 143,587 C 142.832,589.169 146.547,587.453 148,588 C 147.51,590.844 144.87,591.537 142,592 C 142,596.667 142,601.333 142,606 C 143.329,604.996 145.721,605.055 146,603 C 146,600.667 146,598.333 146,596 C 148.092,594.759 149.758,593.092 151,591 z" />
                <path
   id="path22"
   style="fill:#cbcbc9"
   d="M 107,482 C 117.115,477.681 114.212,459.686 110,451 C 109.027,451.027 109.224,452.224 109,453 C 107.359,452.836 107.359,459.164 109,459 C 109,460 109,461 109,462 C 109,464 109,466 109,468 C 107.758,471.091 105.699,473.365 103,475 C 101.573,475.239 101.313,476.646 100,477 C 101.578,479.423 103.578,481.423 106,483 C 106.61,482.943 107.184,482.851 107,482 z" />
                <path
   id="path24"
   style="fill:#cbcbc9"
   d="M 81,409 C 82.242,411.092 83.908,412.759 86,414 C 86.19,414.81 87.003,414.997 87,416 C 89.365,413.698 90.2,409.867 92,407 C 96.328,406.974 102.852,414.401 105,410 C 105,408.333 105,406.667 105,405 C 105.839,403.839 106.319,402.319 106,400 C 108.198,397.787 109.322,401.753 112,402 C 113.44,401.44 114.44,400.44 115,399 C 116.975,398.309 117.666,396.333 118,394 C 118.584,392.231 123.332,385.581 119,388 C 116.578,389.577 114.578,391.577 113,394 C 112.471,394.804 111.957,395.623 112,397 C 109.322,396.345 108.198,394.136 106,393 C 102.349,395.682 100.858,400.524 100,406 C 96.86,406.473 97.358,403.309 95,403 C 94.149,403.184 94.057,402.61 94,402 C 92.009,403.009 89.729,403.729 89,406 C 86.371,405.704 88.213,409.88 85,409 C 81.498,399.659 74.033,410.723 69,412 C 67.273,409.688 65.177,402.541 62,405 C 64.995,405.658 61.043,407.138 62,409 C 64.234,411.766 65.892,415.108 67,419 C 73.079,417.079 75.831,411.831 81,409 z" />
                <path
   id="path26"
   style="fill:#cbcbc9"
   d="M 163,607 C 162.845,609.802 165.827,610.262 167,609 C 169.092,607.759 170.758,606.092 172,604 C 172.677,601.677 175.323,601.323 176,599 C 171.341,599.341 167.083,600.083 164,602 C 162.04,601.517 160.779,606.584 163,607 z" />
                <path
   id="path28"
   style="fill:#cbcbc9"
   d="M 141,447 C 139,442.495 135.206,429.695 131,434 C 128.285,433.284 131.715,438.716 129,438 C 127.775,431.226 124.134,426.866 123,420 C 120.229,422.563 118.267,425.934 117,430 C 104.134,428.801 100.748,437.082 97,445 C 93.463,444.204 93.337,439.996 90,439 C 86.796,439.463 86.474,442.808 83,443 C 83.739,436.594 81.771,432.896 78,431 C 75.64,437.282 82.798,443.161 77,449 C 82.633,452.931 87.096,447.123 90,445 C 90.458,448.542 92.225,450.775 92,455 C 102.933,451.545 102.458,431.532 117,435 C 119.267,433.934 120.634,431.967 121,429 C 124.484,431.849 125.808,436.859 127,442 C 128.71,442.044 129.59,441.257 130,440 C 129.533,437.866 131.429,438.096 133,438 C 133.898,442.102 136.059,444.941 138,448 C 139.578,450.423 141.578,452.423 144,454 C 145.987,454.013 145.271,456.729 148,456 C 148.055,454.722 149.282,454.615 149,453 C 148.667,453 148.333,453 148,453 C 145.427,451.239 143.682,448.651 141,447 z" />
                <path
   id="path30"
   style="fill:#cbcbc9"
   d="M 129,342 C 128.779,341.221 128.163,340.837 127,341 C 122.578,347.578 117.944,353.944 118,365 C 124.654,360.32 128.461,352.795 129,342 z" />
                <path
   id="path32"
   style="fill:#cbcbc9"
   d="M 52,488 C 47.717,488.727 49.889,493.301 53,490 C 59.854,488.474 59.19,477.938 62,472 C 64.184,467.384 70.547,464.571 68,462 C 55.867,463.867 58.448,480.448 52,488 z" />
                <path
   id="path34"
   style="fill:#cbcbc9"
   d="M 47,424 C 45.242,424.575 41.125,422.791 41,425 C 40,425 39,425 38,425 C 35.09,425.064 33.96,438.446 36,434 C 37.386,432.386 38.833,430.834 40,429 C 46.165,427.498 55.148,428.814 56,422 C 52.023,421.689 50.977,424.311 47,424 z" />
                <path
   id="path36"
   style="fill:#cbcbc9"
   d="M 146,315 C 144.612,316.279 145.388,319.721 144,321 C 146.984,320.984 147.4,318.4 150,318 C 150.588,312.079 148.332,309.001 146,306 C 143.553,309.887 141.027,313.693 139,318 C 142.139,317.805 141.711,314.044 146,315 z" />
                <path
   id="path38"
   style="fill:#cbcbc9"
   d="M 49,337 C 48.941,350.059 55.481,356.519 61,364 C 58.761,353.239 55.842,343.158 49,337 z" />
                <path
   id="path40"
   style="fill:#cbcbc9"
   d="M 82,538 C 81,538 80,538 79,538 C 76.048,540.715 74.893,545.227 73,549 C 71.096,548.571 70.488,546.846 68,547 C 68.665,554.335 73.829,557.171 81,558 C 81.826,555.174 79.591,555.409 80,553 C 80,551.333 80,549.667 80,548 C 83.441,544.108 89.511,542.845 91,537 C 90,537 89,537 88,537 C 86.242,537.575 82.125,535.791 82,538 z" />
                <path
   id="path42"
   style="fill:#cbcbc9"
   d="M 101,541 C 110.913,541.913 113.81,535.81 117,530 C 109.472,531.472 104.578,535.577 101,541 z" />
                <path
   id="path44"
   style="fill:#cbcbc9"
   d="M 139,395 C 139.178,392.109 135.622,389.49 135,393 C 132.667,393 130.333,393 128,393 C 128.899,396.853 133.098,399.365 136,396 C 138.447,398.554 137.079,404.921 140,407 C 145.21,407.543 149.035,406.701 152,405 C 154.497,404.309 150.144,402.333 151,400 C 146.563,405.581 139.459,401.609 139,395 z" />
                <path
   id="path46"
   style="fill:#cbcbc9"
   d="M 163,560 C 164.292,555.958 165.734,552.067 166,547 C 168.206,546.942 167.183,536.669 165,541 C 159.075,542.678 158.167,556.282 163,560 z" />
                <path
   id="path48"
   style="fill:#cbcbc9"
   d="M 117,507 C 118.816,514.517 119.993,522.674 127,525 C 127.333,525 127.667,525 128,525 C 128.239,523.573 129.647,523.313 130,522 C 128.913,513.42 123.516,509.15 119,504 C 118.761,505.427 117.354,505.687 117,507 z" />
                <path
   id="path50"
   style="fill:#cbcbc9"
   d="M 97,307 C 97.027,307.973 98.224,307.776 99,308 C 98.549,309.633 104.451,309.633 104,308 C 105.793,308.127 106.109,306.776 108,307 C 108.18,310.26 105.649,311.813 110,312 C 114.47,312.168 112.581,308.481 111,307 C 110.816,306.149 111.39,306.057 112,306 C 114.242,307.091 113.758,310.909 116,312 C 110.855,316.904 105.152,311.027 99,311 C 98.667,311 98.333,311 98,311 C 98.656,314.677 101.687,315.98 104,318 C 104.044,316.29 103.257,315.41 102,315 C 106.203,314.145 114.508,317.348 120,314 C 118.066,310.601 116.149,307.184 113,305 C 113.164,303.359 106.836,303.359 107,305 C 104.652,305.319 103.247,306.58 100,306 C 99.471,305.196 98.957,304.376 99,303 C 97.624,302.957 96.804,303.471 96,304 C 95.914,305.419 95.835,306.832 97,307 z" />
                <path
   id="path52"
   style="fill:#cbcbc9"
   d="M 74,595 C 69.659,596.896 79.07,598.374 79,596 C 81.554,592.554 83.183,588.183 83,582 C 77.941,584.274 75.945,589.612 74,595 z" />
                <path
   id="path54"
   style="fill:#cbcbc9"
   d="M 72,610 C 71.686,611.352 70.577,611.91 71,614 C 69.637,615.273 69.456,618.898 72,619 C 72.221,618.221 72.837,617.838 74,618 C 74,615.667 74,613.333 74,611 C 73.779,610.221 73.163,609.838 72,610 z" />
                <path
   id="path56"
   style="fill:#cbcbc9"
   d="M 147,325 C 146.211,327.211 143.502,327.502 142,329 C 140.247,329.914 138.526,330.859 139,334 C 140.329,335.299 142.721,335.318 143,333 C 143.81,332.81 143.997,331.997 145,332 C 147.422,330.422 149.422,328.422 151,326 C 151,325 151,324 151,323 C 150.776,322.224 150.973,321.027 150,321 C 148.648,321.982 148.001,323.668 147,325 z" />
        </g>
        <g
   id="Bewehrung">
                <path
   id="path59"
   style="fill:#c70c1e;fill-rule:evenodd"
   d="M 40,296 C 44.267,296.733 46.917,299.083 47,304 C 44.644,303.978 44.056,305.723 41,305 C 40.159,302.508 39.691,299.643 40,296 z" />
                <path
   id="path61"
   style="fill:#c70c1e;fill-rule:evenodd"
   d="M 27,307 C 25.758,309.092 24.092,310.758 22,312 C 17.646,311.354 17.201,306.799 13,306 C 16.381,301.203 23.576,303.858 27,307 z" />
                <path
   id="path63"
   style="fill:#c70c1e;fill-rule:evenodd"
   d="M 70,323 C 73.921,322.079 70.726,328.274 73,329 C 78.25,341.083 108.742,327.924 111,343 C 99.823,331.993 66.334,350.331 66,326 C 67.332,324.999 69.018,324.352 70,323 z" />
                <path
   id="path65"
   style="fill:#c70c1e;fill-rule:evenodd"
   d="M 27,337 C 23.582,341.834 16.283,339.284 14,335 C 17.939,331.738 25.038,332.978 27,337 z" />
                <path
   id="path67"
   style="fill:#c70c1e;fill-rule:evenodd"
   d="M 35,354 C 33.842,358.926 25.638,357.045 24,354 C 28.156,351.788 31.813,350.229 35,354 z" />
                <path
   id="path69"
   style="fill:#c70c1e;fill-rule:evenodd"
   d="M 26,498 C 22.196,498.529 19.422,500.089 16,501 C 14.896,494.039 26.425,487.156 26,498 z" />
                <path
   id="path71"
   style="fill:#c70c1e;fill-rule:evenodd"
   d="M 64,507 C 67.928,507.738 68.764,511.569 69,516 C 66.933,517.773 63.437,514.912 61,514 C 61.357,511.023 62.593,508.926 64,507 z" />
                <path
   id="path73"
   style="fill:#c70c1e;fill-rule:evenodd"
   d="M 26,518 C 30.638,517.362 32.187,519.813 34,522 C 31.745,526.158 29.478,528.246 31,534 C 24.627,533.496 23.825,523.936 26,518 z" />
                <path
   id="path75"
   style="fill:#c70c1e;fill-rule:evenodd"
   d="M 48,520 C 49.314,521.02 51.686,520.98 53,522 C 51.98,526.314 50.103,529.77 44,529 C 45.882,526.549 47.392,523.726 48,520 z" />
                <path
   id="path77"
   style="fill:#c70c1e;fill-rule:evenodd"
   d="M 47,600 C 43.835,601.169 39.962,601.629 39,605 C 33.12,596.928 48.125,586.635 47,600 z" />
                <path
   id="path79"
   style="fill:#c70c1e;fill-rule:evenodd"
   d="M 47,617 C 52.364,616.303 53.324,620.009 55,623 C 52.979,626.979 50.389,630.389 47,633 C 43.517,629.246 45.266,621.242 47,617 z" />
                <path
   id="path81"
   style="fill:#c70c1e;fill-rule:evenodd"
   d="M 81,628 C 81.684,623.649 79.201,622.465 77,621 C 77.869,618.536 79.331,616.664 83,617 C 85.354,619.431 86.739,628.288 81,628 z" />
                <path
   id="path83"
   style="fill:#c70c1e;fill-rule:evenodd"
   d="M 65,628 C 67.656,628.01 70.711,627.622 72,629 C 72.448,635.781 67.958,637.625 63,639 C 64.7,636.366 63.1,630.434 65,628 z" />
                <path
   id="path85"
   style="fill:#c70c1e;fill-rule:evenodd"
   d="M 114,659 C 114.319,661.348 115.58,662.754 115,666 C 113.96,668.294 107.859,665.526 107,668 C 102.947,664.854 106.607,656.82 114,659 z" />
                <path
   id="path87"
   style="fill:#c70c1e;fill-rule:evenodd"
   d="M 159,676 C 159.085,680.418 159.194,684.86 155,685 C 156.123,679.544 151.935,679.398 151,676 C 153.876,674.545 156.899,673.207 159,676 z" />
                <path
   id="path89"
   style="fill:#c70c1e;fill-rule:evenodd"
   d="M 120,675 C 126.463,677.376 120.759,682.91 123,687 C 118.878,690.449 117.678,678.101 120,675 z" />
                <path
   id="path91"
   style="fill:#c70c1e;fill-rule:evenodd"
   d="M 142,685 C 141.764,689.431 139.808,692.141 136,693 C 136.846,689.433 137.013,681.253 142,685 z" />
        </g>
        <path
   id="Lwe_1_"
   d="M 191,524 C 196.803,501.199 175.039,470.985 186,463 C 188.306,462.694 187.111,465.889 189,466 C 189.954,456.046 186.998,450.002 179,449 C 174.784,449.45 174.393,453.726 171,455 C 169.761,450.171 163.664,442.586 170,439 C 174.557,437.776 173.923,441.743 178,441 C 178.357,434.643 176.623,430.377 173,428 C 175.004,426.289 181.106,426.544 182,429 C 183.83,431.17 181.812,437.188 184,439 C 192.221,434.883 193.359,420.846 189,412 C 173.309,400.988 155.721,423.15 154,435 C 149.272,467.554 184.362,485.15 180,514 C 178.013,514.013 178.729,516.729 176,516 C 159.538,503.129 158.339,474.994 148,456 C 145.271,456.729 145.987,454.013 144,454 C 141.578,452.423 139.578,450.423 138,448 C 136.059,444.941 133.898,442.102 133,438 C 131.429,438.096 129.533,437.866 130,440 C 129.59,441.257 128.71,442.044 127,442 C 125.808,436.859 124.484,431.849 121,429 C 120.634,431.967 119.267,433.934 117,435 C 102.458,431.532 102.933,451.545 92,455 C 92.225,450.775 90.458,448.542 90,445 C 87.096,447.123 82.633,452.931 77,449 C 82.798,443.161 75.64,437.282 78,431 C 81.771,432.896 83.739,436.594 83,443 C 86.474,442.808 86.796,439.463 90,439 C 93.337,439.996 93.463,444.204 97,445 C 100.748,437.082 104.134,428.801 117,430 C 118.267,425.934 120.229,422.562 123,420 C 124.134,426.866 127.775,431.226 129,438 C 131.715,438.716 128.285,433.284 131,434 C 135.206,429.695 139,442.495 141,447 C 143.682,448.651 145.427,451.239 148,453 C 148.333,453 148.667,453 149,453 C 149.667,453 150.333,453 151,453 C 150.988,449.675 145.163,440.284 149,433 C 147.028,429.972 142.592,429.407 141,426 C 148.663,422.996 151.797,415.464 152,405 C 149.035,406.701 145.21,407.543 140,407 C 137.079,404.921 138.447,398.554 136,396 C 133.098,399.365 128.899,396.853 128,393 C 130.333,393 132.667,393 135,393 C 135.622,389.49 139.178,392.109 139,395 C 139.459,401.609 146.563,405.581 151,400 C 150.271,397.271 152.987,397.987 153,396 C 148.356,394.644 145.951,391.049 147,384 C 148.289,385.378 151.344,384.989 154,385 C 157.233,381.232 158.363,375.363 161,371 C 154.294,369.295 155.497,375.496 150,375 C 146.589,370.076 152.78,367.484 153,363 C 149.534,362.133 146.17,361.163 146,357 C 149.457,358.209 152.626,359.708 158,359 C 159.729,356.729 160.413,353.413 160,349 C 145.388,353.894 150.331,332.792 151,326 C 149.422,328.422 147.422,330.422 145,332 C 143.997,331.997 143.81,332.81 143,333 C 142.721,335.318 140.329,335.299 139,334 C 138.526,330.859 140.247,329.914 142,329 C 143.502,327.502 146.211,327.211 147,325 C 148.001,323.668 148.648,321.982 150,321 C 154.625,313.424 150.982,300.26 149,293 C 143.172,298.505 142.682,309.349 137,315 C 137.51,307.843 141.632,304.299 143,298 C 131.241,303.396 111.229,287.047 99,299 C 99,300.333 99,301.667 99,303 C 98.957,304.376 99.471,305.196 100,306 C 103.247,306.58 104.652,305.319 107,305 C 106.836,303.359 113.164,303.359 113,305 C 116.149,307.184 118.066,310.601 120,314 C 114.508,317.348 106.203,314.145 102,315 C 103.257,315.41 104.044,316.29 104,318 C 101.687,315.98 98.656,314.677 98,311 C 98.333,311 98.667,311 99,311 C 105.152,311.027 110.855,316.904 116,312 C 113.758,310.909 114.242,307.091 112,306 C 111.39,306.057 110.816,306.149 111,307 C 112.581,308.481 114.47,312.168 110,312 C 105.649,311.813 108.18,310.26 108,307 C 106.109,306.776 105.793,308.127 104,308 C 104.451,309.633 98.549,309.633 99,308 C 98.224,307.776 97.027,307.973 97,307 C 95.835,306.832 95.914,305.419 96,304 C 88.202,304.202 83.187,307.188 83,315 C 85.555,315.773 87.598,311.087 89,314 C 87.402,315.402 86.445,317.445 86,320 C 90.591,334.067 96.103,323.848 103,331 C 103.797,328.797 105.007,327.007 108,327 C 110.687,328.313 111.591,331.409 114,333 C 114.892,329.892 115.029,326.029 119,326 C 121.054,326.279 120.996,328.671 122,330 C 119.958,334.292 116.573,337.24 112,339 C 105.832,326.799 68.713,340.335 75,319 C 67.857,319.983 63.845,322.615 63,325 C 53.407,352.076 106.823,333.628 112,349 C 110.624,348.957 109.804,349.471 109,350 C 105.261,345.765 99.906,345.386 95,345 C 92.935,349.354 95.424,354.34 98,357 C 101.333,357 104.667,357 108,357 C 107.957,358.376 108.471,359.196 109,360 C 104.63,369.8 91.611,368.61 82,374 C 75.302,377.756 71.548,382.394 65,385 C 67.235,379.235 71.59,375.591 76,372 C 71.676,365.602 70.116,357.275 64,348 C 57.894,338.741 44.654,330.799 45,323 C 45.339,315.34 54.399,316.549 56,308 C 48.822,302.845 47.433,291.9 35,292 C 39.448,298.198 37.217,305.185 35,312 C 35.872,314.461 39.428,314.239 39,318 C 37.678,318.012 38.086,319.752 37,320 C 30.135,320.841 30.088,311.886 32,307 C 25.816,301.509 12.463,296.438 8,307 C 12.292,308.374 16.068,310.265 18,314 C 15.736,320.813 28.004,321.17 28,329 C 21.688,327.014 17.401,332.586 11,329 C 9.198,341.816 22.019,345.518 30,340 C 30.105,344.105 30.164,348.164 28,350 C 26.108,351.984 23.276,350.485 21,350 C 20.458,358.012 27.81,361.868 35,359 C 36.55,356.216 36.176,351.509 39,350 C 59.976,357.347 22.732,375.129 41,386 C 41.135,382.802 40.014,378.348 44,379 C 50.827,382.898 41.525,397.923 51,400 C 50.224,395.224 53.089,394.089 57,394 C 57.012,395.321 58.753,394.914 59,396 C 57.609,408.354 34.721,407.966 39,391 C 32.197,395.068 29.345,404.466 33,410 C 40.23,420.947 55.848,412.112 62,405 C 65.177,402.541 67.273,409.688 69,412 C 74.033,410.723 81.498,399.659 85,409 C 88.213,409.88 86.371,405.704 89,406 C 89.729,403.729 92.009,403.009 94,402 C 94.057,402.61 94.149,403.184 95,403 C 97.358,403.309 96.86,406.473 100,406 C 100.858,400.524 102.349,395.682 106,393 C 108.198,394.136 109.322,396.345 112,397 C 111.957,395.623 112.471,394.804 113,394 C 114.578,391.577 116.578,389.577 119,388 C 123.332,385.581 118.584,392.231 118,394 C 117.666,396.333 116.975,398.309 115,399 C 114.44,400.44 113.44,401.44 112,402 C 109.322,401.753 108.198,397.787 106,400 C 106.319,402.319 105.839,403.839 105,405 C 105,406.667 105,408.333 105,410 C 102.852,414.401 96.328,406.974 92,407 C 90.2,409.867 89.365,413.698 87,416 C 87.003,414.997 86.19,414.81 86,414 C 83.908,412.759 82.242,411.092 81,409 C 75.831,411.831 73.079,417.079 67,419 C 65.892,415.108 64.234,411.766 62,409 C 56.286,421.619 34.335,418.002 27,429 C 22.299,440.858 36.065,457.151 45,446 C 42.484,444.183 38.149,444.185 38,440 C 38.636,433.952 47.316,430.673 53,433 C 47.903,436.548 45.799,448.01 52,452 C 58.093,452.76 61.983,451.317 65,449 C 65.562,444.438 61.23,444.771 62,440 C 61.596,435.886 69.121,434.513 72,437 C 73.92,440.433 71.132,446.428 71,451 C 51.694,457.361 56.483,487.816 38,495 C 32.931,491.735 33.581,482.753 23,485 C 20.153,492.153 11.399,493.398 13,505 C 15.708,506.69 24.775,495.642 28,504 C 32.05,505.638 32.603,498.709 35,502 C 34.528,508.862 28.875,510.542 24,513 C 19.026,524.851 24.127,540.696 36,538 C 32.354,532.802 32.499,524.722 39,523 C 38.963,514.964 39.921,507.921 47,507 C 45.948,511.005 41.553,516.381 46,520 C 44.364,524.697 40.75,527.416 38,531 C 50.279,534.832 55.021,526.36 58,518 C 58.129,514.813 51.302,513.441 55,510 C 59.535,509.465 57.336,515.664 59,518 C 64.857,517.81 67.498,520.836 70,524 C 73.896,512.145 68.25,502.866 60,500 C 68.339,498.006 68.641,487.975 75,484 C 74.003,486.668 72.698,492.936 77,493 C 76.525,488.858 76.997,485.663 81,486 C 74.43,495.679 89.482,509.07 92,500 C 86.602,504.325 83.425,490.765 88,488 C 90.886,491.984 100.585,492.382 101,486 C 98.137,486.197 95.542,486.124 96,483 C 95.567,479.233 98.113,478.446 100,477 C 101.313,476.646 101.573,475.239 103,475 C 105.699,473.365 107.758,471.091 109,468 C 109,466 109,464 109,462 C 109,461 109,460 109,459 C 107.359,459.164 107.359,452.836 109,453 C 109.224,452.224 109.027,451.027 110,451 C 114.212,459.686 117.115,477.681 107,482 C 107.184,482.851 106.61,482.943 106,483 C 106,483.333 106,483.667 106,484 C 112.115,491.218 123.055,493.611 127,503 C 123.635,503.631 119.709,499.714 118,502 C 118.779,502.221 119.163,502.837 119,504 C 123.516,509.15 128.913,513.42 130,522 C 132.974,522.24 137.994,519.417 139,521 C 129.994,534.143 125.905,551.03 123,569 C 120.971,581.55 142.614,600.068 126,604 C 122.85,604.483 125.251,599.416 123,599 C 119.301,601.871 121.339,609.604 123,613 C 135.514,618.787 136.322,605.274 137,596 C 138.61,602.39 137.999,611.001 141,616 C 146.582,617.248 147.443,613.776 148,610 C 145.591,609.591 145.826,611.826 143,611 C 143.826,608.174 141.591,608.409 142,606 C 142,601.333 142,596.667 142,592 C 144.87,591.537 147.51,590.844 148,588 C 146.547,587.453 142.832,589.169 143,587 C 141.047,584.753 142.128,579.479 143,577 C 143.622,574.289 147.178,574.511 147,571 C 144.721,571.279 143.241,570.759 143,569 C 141.342,567.275 141.342,558.725 143,557 C 142.429,562.904 143.352,567.314 147,569 C 154.696,571.85 144.117,577.506 145,583 C 148.166,584.248 154.294,586.466 151,591 C 149.758,593.092 148.092,594.759 146,596 C 146,598.333 146,600.667 146,603 C 147.532,606.801 153.116,606.551 155,610 C 148.877,619.877 140.91,627.91 140,643 C 133.636,645.636 130.291,651.291 125,655 C 117.661,650.717 110.52,655.752 104,658 C 102.526,661.763 102.526,669.237 104,673 C 110.905,668.994 117.75,669.617 124,664 C 123.997,665.003 124.81,665.19 125,666 C 124.667,670.333 119.462,669.795 117,672 C 115.536,680.66 115.583,691.477 126,691 C 125.833,688.167 124.167,686.833 124,684 C 126.103,683.104 128.446,682.445 130,681 C 129.732,674.398 129.867,668.2 137,669 C 129.44,676.455 136.815,687.715 130,694 C 143.014,699.883 144.54,685.97 148,679 C 150.536,680.797 152.723,682.943 152,688 C 158.538,688.871 160.354,685.021 163,682 C 164.362,670.296 151.668,667.343 154,658 C 155.867,662.466 159.001,665.666 164,667 C 163.932,658.932 163.94,650.94 167,646 C 169.409,649.042 166.563,656.404 168,658 C 169.232,657.138 170.768,651.562 172,654 C 171.515,656.275 170.016,659.108 172,661 C 179.762,665.532 186.477,655.653 183,649 C 182.288,651.001 177.292,652.18 177,649 C 175.626,636.581 190.864,646.909 190,635 C 190.032,633.179 184.968,636.907 185,633 C 187.855,623.012 188.668,612.358 185,606 C 186.157,603.491 188.984,602.651 189,599 C 185.892,597.774 183.686,595.647 183,592 C 154.001,585.546 176.046,548.976 173,527 C 178.82,535.517 188.568,533.557 191,524 z M 146,306 C 148.332,309.001 150.588,312.079 150,318 C 147.4,318.4 146.984,320.984 144,321 C 145.388,319.721 144.612,316.279 146,315 C 141.711,314.044 142.139,317.805 139,318 C 141.027,313.693 143.553,309.887 146,306 z M 66,326 C 67.332,324.999 69.018,324.352 70,323 C 73.921,322.079 70.726,328.274 73,329 C 78.25,341.083 108.742,327.924 111,343 C 99.823,331.993 66.334,350.331 66,326 z M 22,312 C 17.646,311.354 17.201,306.799 13,306 C 16.381,301.203 23.576,303.858 27,307 C 25.758,309.092 24.092,310.758 22,312 z M 14,335 C 17.939,331.738 25.038,332.978 27,337 C 23.582,341.834 16.283,339.284 14,335 z M 24,354 C 28.156,351.788 31.813,350.229 35,354 C 33.842,358.926 25.638,357.045 24,354 z M 41,305 C 40.159,302.508 39.691,299.643 40,296 C 44.267,296.733 46.917,299.083 47,304 C 44.644,303.978 44.056,305.723 41,305 z M 49,337 C 55.842,343.158 58.761,353.239 61,364 C 55.481,356.519 48.941,350.059 49,337 z M 118,365 C 117.944,353.944 122.578,347.578 127,341 C 128.163,340.837 128.779,341.221 129,342 C 128.461,352.795 124.654,360.32 118,365 z M 40,429 C 38.833,430.834 37.386,432.386 36,434 C 33.96,438.446 35.09,425.064 38,425 C 39,425 40,425 41,425 C 41.125,422.791 45.242,424.575 47,424 C 50.977,424.311 52.023,421.689 56,422 C 55.148,428.814 46.165,427.498 40,429 z M 26,498 C 22.196,498.529 19.422,500.089 16,501 C 14.896,494.039 26.425,487.156 26,498 z M 31,534 C 24.627,533.496 23.825,523.936 26,518 C 30.638,517.362 32.187,519.813 34,522 C 31.745,526.158 29.478,528.246 31,534 z M 64,507 C 67.928,507.738 68.764,511.569 69,516 C 66.933,517.773 63.437,514.912 61,514 C 61.357,511.023 62.593,508.926 64,507 z M 44,529 C 45.882,526.549 47.392,523.726 48,520 C 49.314,521.02 51.686,520.98 53,522 C 51.98,526.314 50.103,529.77 44,529 z M 62,472 C 59.19,477.938 59.854,488.474 53,490 C 49.889,493.301 47.717,488.727 52,488 C 58.448,480.448 55.867,463.867 68,462 C 70.547,464.571 64.184,467.384 62,472 z M 115,666 C 113.96,668.294 107.859,665.526 107,668 C 102.947,664.854 106.607,656.82 114,659 C 114.319,661.348 115.58,662.754 115,666 z M 123,687 C 118.878,690.449 117.678,678.101 120,675 C 126.463,677.376 120.759,682.91 123,687 z M 136,693 C 136.846,689.433 137.013,681.253 142,685 C 141.764,689.431 139.808,692.141 136,693 z M 147,678 C 144.914,676.42 141.983,675.684 142,672 C 143.161,671.161 144.681,670.681 147,671 C 148.374,674.164 147.218,674.342 147,678 z M 159,676 C 159.085,680.418 159.194,684.86 155,685 C 156.123,679.544 151.935,679.398 151,676 C 153.876,674.545 156.899,673.207 159,676 z M 165,541 C 167.183,536.669 168.206,546.942 166,547 C 165.734,552.067 164.292,555.958 163,560 C 158.167,556.282 159.075,542.678 165,541 z M 176,599 C 175.323,601.323 172.677,601.677 172,604 C 170.758,606.092 169.092,607.759 167,609 C 165.827,610.262 162.845,609.802 163,607 C 160.779,606.584 162.04,601.517 164,602 C 167.083,600.083 171.341,599.341 176,599 z M 158,334 C 161.332,333.665 162.436,331.103 167,332 C 163.146,326.167 159.725,305.364 173,304 C 169.237,316.184 177.406,319.512 179,329 C 183.604,327.321 181.931,318.472 181,314 C 190.023,323.75 190.355,352.47 181,362 C 182.277,381.277 174.055,391.055 172,407 C 165.334,410.001 159.746,414.079 157,421 C 152.511,394.217 184.801,372.314 164,350 C 163.69,346.023 166.31,344.977 166,341 C 164.978,337.293 156.007,338.529 157,343 C 153.84,340.417 158,336.734 158,334 z M 117,507 C 112.737,509.736 110.263,514.264 106,517 C 106.168,519.169 102.453,517.453 101,518 C 88.403,517.403 78.582,519.582 73,526 C 56.603,524.936 54.848,538.515 47,546 C 46.779,545.221 46.163,544.838 45,545 C 44.351,541.351 45.674,539.674 47,538 C 38.164,538.321 41.252,550.246 44,555 C 34.337,559.002 36.56,578.085 48,575 C 45.723,572.944 44.546,569.787 45,565 C 48.821,564.782 54.545,561.264 58,564 C 56.714,568.047 52.842,569.509 52,574 C 55.211,574.431 63.5,568.886 63,575 C 66.399,574.065 66.544,569.877 72,571 C 73.253,575.08 78.003,575.663 81,578 C 70.415,582.082 69.526,595.859 58,599 C 54.131,596.868 55.703,589.297 50,589 C 38.617,587.596 29.823,605.113 41,611 C 40.648,606.981 41.016,603.683 44,603 C 49.177,604.156 53.435,606.231 56,610 C 52.357,609.691 49.492,610.159 47,611 C 43.01,618.476 40.197,633.556 49,638 C 50.285,628.952 60.03,628.363 58,616 C 59.891,616.225 60.207,614.873 62,615 C 64.054,615.279 63.996,617.671 65,619 C 64.396,622.729 60.404,623.07 60,627 C 63.58,630.757 61.293,637.506 59,641 C 72.71,642.788 75.171,631.156 74,621 C 78.202,622.249 79.618,625.35 78,630 C 91.573,629.412 86.411,614.344 83,608 C 84.987,607.987 84.271,605.271 87,606 C 87.88,608.786 88.248,612.085 90,614 C 91.146,609.146 90.526,602.526 96,602 C 83.959,624.008 119.681,644.534 118,618 C 116.594,619.008 107.456,622.147 109,613 C 110.192,607.858 120.29,611.623 118,603 C 116.284,603.863 109.714,604.269 110,598 C 114.911,592.742 118.475,583.061 112,577 C 115.54,575.251 113.764,573.255 116,567 C 111.289,567.289 108.92,569.92 103,569 C 99.807,565.916 98.162,563.276 98,559 C 97.289,540.25 133.336,547.655 127,525 C 119.993,522.674 118.816,514.517 117,507 z M 47,600 C 43.835,601.169 39.962,601.629 39,605 C 33.12,596.928 48.125,586.635 47,600 z M 47,633 C 43.517,629.246 45.266,621.242 47,617 C 52.364,616.303 53.324,620.009 55,623 C 52.979,626.979 50.389,630.389 47,633 z M 63,639 C 64.7,636.366 63.1,630.434 65,628 C 67.656,628.01 70.711,627.622 72,629 C 72.448,635.781 67.958,637.625 63,639 z M 74,618 C 72.837,617.838 72.221,618.221 72,619 C 69.456,618.898 69.637,615.273 71,614 C 70.577,611.91 71.686,611.352 72,610 C 73.163,609.838 73.779,610.221 74,611 C 74,613.333 74,615.667 74,618 z M 81,628 C 81.684,623.649 79.201,622.465 77,621 C 77.869,618.536 79.331,616.664 83,617 C 85.354,619.431 86.739,628.288 81,628 z M 79,596 C 79.07,598.374 69.659,596.896 74,595 C 75.945,589.612 77.941,584.274 83,582 C 83.183,588.183 81.554,592.554 79,596 z M 80,548 C 80,549.667 80,551.333 80,553 C 79.591,555.409 81.826,555.174 81,558 C 73.829,557.171 68.665,554.335 68,547 C 70.488,546.846 71.096,548.571 73,549 C 74.893,545.227 76.048,540.715 79,538 C 80,538 81,538 82,538 C 82.125,535.791 86.242,537.575 88,537 C 89,537 90,537 91,537 C 89.511,542.845 83.441,544.108 80,548 z M 101,541 C 104.578,535.577 109.472,531.472 117,530 C 113.81,535.81 110.913,541.913 101,541 z" />
</g></g>
</svg>